<svg width="27" height="29" viewBox="0 0 27 29" fill="none" xmlns="http://www.w3.org/2000/svg">
<path d="M26.5002 23.705C23.2989 22.3132 23.1771 16.3393 23.1747 16.1885V12.1807C23.1747 8.32342 20.7263 5.00655 17.247 3.59426C17.2395 1.61112 15.5617 0 13.5001 0C11.4385 0 9.76072 1.61121 9.75319 3.59417C6.27401 5.00646 3.82551 8.32333 3.82551 12.1806V16.1884C3.82324 16.3392 3.70137 22.3131 0.499947 23.7049C0.135254 23.8635 -0.0651826 24.2456 0.0191365 24.6223C0.103357 24.9989 0.449346 25.2679 0.849579 25.2679H8.96548C9.13185 26.149 9.56462 26.9687 10.2265 27.6326C11.1056 28.5144 12.2682 29 13.5 29C14.7318 29 15.8944 28.5144 16.7734 27.6326C17.4354 26.9687 17.8682 26.1489 18.0344 25.2679H26.1503C26.5506 25.2679 26.8965 24.999 26.9808 24.6223C27.0652 24.2456 26.8649 23.8635 26.5002 23.705ZM22.2831 20.8431C22.6197 21.8253 23.0962 22.8117 23.7719 23.6325H3.22818C3.90382 22.8118 4.38035 21.8255 4.71689 20.8431H22.2831ZM13.5001 1.63552C14.4326 1.63552 15.2211 2.23874 15.4678 3.06098C14.8322 2.93408 14.1741 2.86718 13.5001 2.86718C12.8261 2.86718 12.168 2.93404 11.5324 3.06098C11.7792 2.23879 12.5676 1.63552 13.5001 1.63552ZM5.52444 16.1935V12.1806C5.52444 7.94699 9.10227 4.5027 13.5001 4.5027C17.8979 4.5027 21.4758 7.94699 21.4758 12.1806V16.2001C21.4769 16.3231 21.4968 17.616 21.8352 19.2075H5.16477C5.50342 17.6145 5.52341 16.3194 5.52444 16.1935ZM13.5001 27.3646C12.2035 27.3646 11.0719 26.4647 10.7087 25.268H16.2914C15.9282 26.4647 14.7968 27.3646 13.5001 27.3646Z" fill="#3F3D56"/>
<path d="M13.5003 5.65039C9.84549 5.65039 6.87207 8.51273 6.87207 12.0311C6.87207 12.4827 7.25242 12.8489 7.72156 12.8489C8.19071 12.8489 8.57105 12.4827 8.57105 12.0311C8.57105 9.41458 10.7823 7.28591 13.5003 7.28591C13.9695 7.28591 14.3498 6.91976 14.3498 6.46813C14.3498 6.01645 13.9694 5.65039 13.5003 5.65039Z" fill="#A48AE6"/>
</svg>
