<svg width="27" height="27" viewBox="0 0 27 27" fill="none" xmlns="http://www.w3.org/2000/svg">
<path d="M21 1H6C3.23858 1 1 3.23858 1 6C1 8.76142 3.23858 11 6 11H21C23.7614 11 26 8.76142 26 6C26 3.23858 23.7614 1 21 1Z" stroke="#3F3D56" stroke-linejoin="round"/>
<path d="M21 16H6C3.23858 16 1 18.2386 1 21C1 23.7614 3.23858 26 6 26H21C23.7614 26 26 23.7614 26 21C26 18.2386 23.7614 16 21 16Z" stroke="#3F3D56" stroke-linejoin="round"/>
<path d="M21 7.25C21.6904 7.25 22.25 6.69037 22.25 6C22.25 5.30962 21.6904 4.75 21 4.75C20.3096 4.75 19.75 5.30962 19.75 6C19.75 6.69037 20.3096 7.25 21 7.25Z" fill="#A48AE6" stroke="#A48AE6" stroke-linejoin="round"/>
<path d="M6 22.25C6.69037 22.25 7.25 21.6904 7.25 21C7.25 20.3096 6.69037 19.75 6 19.75C5.30962 19.75 4.75 20.3096 4.75 21C4.75 21.6904 5.30962 22.25 6 22.25Z" fill="#A48AE6" stroke="#A48AE6" stroke-linejoin="round"/>
</svg>
