<svg width="375" height="301" viewBox="0 0 375 301" fill="none" xmlns="http://www.w3.org/2000/svg">
<path d="M257.672 293.352L166.785 130.267C166.759 129.868 166.635 129.482 166.423 129.142C166.212 128.802 165.919 128.519 165.572 128.318C165.173 128.091 164.718 127.982 164.259 128.003C164.244 128.002 164.229 128.002 164.214 128.002C164.2 128.002 164.185 128.002 164.17 128.003C163.548 127.974 162.939 128.185 162.471 128.593C162.002 129 161.71 129.572 161.655 130.19L65.328 293.352C65.1674 293.628 65.0631 293.934 65.021 294.25C64.979 294.567 65.0001 294.889 65.0831 295.197C65.166 295.506 65.3093 295.795 65.5046 296.048C65.6999 296.302 65.9435 296.515 66.2215 296.674C66.4994 296.834 66.8062 296.938 67.1244 296.979C67.4426 297.021 67.7659 297 68.0758 296.917C68.3858 296.834 68.6764 296.692 68.9309 296.497C69.1854 296.302 69.3989 296.06 69.5593 295.783L164.15 135.563L253.441 295.783C253.601 296.06 253.815 296.302 254.069 296.497C254.324 296.692 254.614 296.834 254.924 296.917C255.234 297 255.557 297.021 255.876 296.979C256.194 296.938 256.501 296.834 256.779 296.674C257.056 296.515 257.3 296.302 257.495 296.048C257.691 295.795 257.834 295.506 257.917 295.197C258 294.889 258.021 294.567 257.979 294.25C257.937 293.934 257.833 293.628 257.672 293.352Z" fill="#3F3D56"/>
<path d="M149.39 265L160 262.648L155.66 222L140 225.47L149.39 265Z" fill="#FFB6B6"/>
<path d="M157.744 245.662L143.11 249L138.43 239.907L138.165 239.584C136.09 237.051 134.937 233.893 134.896 230.625L122.733 198.63L121.738 198.16C120.969 197.796 120.286 197.273 119.736 196.626C119.186 195.979 118.781 195.223 118.549 194.408C118.316 193.593 118.261 192.738 118.387 191.9C118.513 191.062 118.818 190.26 119.28 189.549L117.992 186.162L81.6563 186.228L81.6201 186.218L37 173.772L41.6851 146L54.2366 153.851C58.3726 153.584 129.222 149.259 135.767 165.047C141.595 179.107 149.994 203.127 156.014 220.802C156.314 221.595 156.687 222.36 157.128 223.085C158.065 224.519 158.614 226.169 158.724 227.876C158.795 228.618 158.938 229.352 159.15 230.067C161.652 237.505 157.84 245.466 157.801 245.545L157.744 245.662Z" fill="#060606"/>
<path d="M146 261.899L149.357 261.146L161.24 253L169.486 256.633L169.487 256.633C173.457 255.743 177.626 256.431 181.076 258.544C184.527 260.658 186.978 264.024 187.888 267.903L188 268.378L149.546 277L146 261.899Z" fill="#060606"/>
<path d="M285.701 245.293C285.16 245.51 284.57 245.6 283.982 245.555C283.395 245.51 282.829 245.331 282.335 245.035C282.082 244.883 281.859 245.263 282.11 245.415C282.658 245.739 283.283 245.936 283.932 245.987C284.581 246.038 285.234 245.942 285.834 245.707C285.892 245.689 285.941 245.651 285.97 245.602C286 245.552 286.008 245.493 285.992 245.439C285.974 245.384 285.934 245.338 285.879 245.31C285.825 245.283 285.761 245.277 285.701 245.293Z" fill="white"/>
<path d="M256.516 259.12C256.182 259.772 255.707 260.323 255.132 260.722C254.557 261.122 253.902 261.358 253.224 261.41C252.876 261.435 252.958 262.024 253.303 261.999C254.052 261.938 254.776 261.677 255.412 261.236C256.047 260.796 256.576 260.191 256.95 259.475C256.991 259.41 257.007 259.331 256.997 259.254C256.987 259.177 256.95 259.107 256.894 259.058C256.836 259.011 256.764 258.992 256.693 259.003C256.623 259.015 256.559 259.057 256.516 259.12Z" fill="white"/>
<path d="M253.5 48C254.881 48 256 47.1046 256 46C256 44.8954 254.881 44 253.5 44C252.119 44 251 44.8954 251 46C251 47.1046 252.119 48 253.5 48Z" fill="#3F3D56"/>
<path d="M223.389 64.494L256.045 44.3878C256.34 44.2059 256.67 44.0846 257.015 44.0311C257.359 43.9777 257.712 43.9932 258.05 44.0768C258.388 44.1604 258.706 44.3104 258.983 44.5176C259.261 44.7249 259.492 44.9851 259.664 45.2825C259.836 45.58 259.945 45.9085 259.984 46.2483C260.023 46.5881 259.991 46.9321 259.89 47.2595C259.79 47.5869 259.623 47.8909 259.399 48.1532C259.175 48.4154 258.899 48.6305 258.588 48.7854L224.209 65.9115C224.018 66.0066 223.797 66.0259 223.592 65.9654C223.387 65.9048 223.214 65.7692 223.108 65.5866C223.003 65.404 222.973 65.1886 223.025 64.9851C223.078 64.7816 223.208 64.6057 223.389 64.494Z" fill="#E4E4E4"/>
<path d="M157.385 109.476C157.128 109.08 156.994 108.611 157 108.133C157.007 107.655 157.154 107.19 157.422 106.802C157.974 106.034 158.709 105.429 159.555 105.046C161.3 104.123 163.181 103.506 165.12 103.219C166.594 103.002 168.202 102.933 169.345 101.943C170.481 100.96 171.114 99.1212 172.585 98.9677C174.008 98.8193 175.101 100.436 176.528 100.536C178.286 100.66 179.437 98.5234 181.148 98.0853C182.293 97.7919 183.471 98.3096 184.545 98.8156L190.991 101.852L194.295 103.409C195.449 103.952 196.751 104.684 196.969 105.981C197.268 107.762 195.36 109.019 193.729 109.651C182.081 114.115 169.281 114.116 157.631 109.656" fill="#E3B357"/>
<path d="M166.5 141C213.72 141 252 135.404 252 128.5C252 121.596 213.72 116 166.5 116C119.28 116 81 121.596 81 128.5C81 135.404 119.28 141 166.5 141Z" fill="#3F3D56"/>
<path d="M340.143 204H281.857C279.175 204 277 206.239 277 209C277 211.761 279.175 214 281.857 214H340.143C342.825 214 345 211.761 345 209C345 206.239 342.825 204 340.143 204Z" fill="#3F3D56"/>
<path d="M368.912 117.879L349.394 209.263L354.477 232.653L364.075 276.795V296.636C364.076 296.663 364.074 296.69 364.069 296.716C364.066 297.155 363.984 297.589 363.828 298H356.113C355.957 297.589 355.876 297.155 355.872 296.716C355.868 296.69 355.866 296.663 355.867 296.636V277.647L347.156 237.582L345.394 229.493L341.985 213.815L341 209.274V209.269L341.974 204.717L342.724 201.206L360.879 116.218C360.989 115.698 361.203 115.204 361.507 114.765C361.811 114.326 362.199 113.95 362.651 113.659C363.102 113.369 363.607 113.168 364.137 113.07C364.667 112.972 365.211 112.977 365.739 113.086C366.267 113.195 366.767 113.406 367.213 113.706C367.658 114.006 368.038 114.389 368.333 114.834C368.628 115.28 368.831 115.778 368.93 116.3C369.029 116.822 369.023 117.359 368.912 117.879Z" fill="#3F3D56"/>
<path d="M286 209.055V296.632C286.001 296.659 285.999 296.687 285.995 296.713C285.991 297.153 285.912 297.588 285.76 298H278.24C278.088 297.588 278.009 297.153 278.005 296.713C278.001 296.687 277.999 296.659 278 296.632V209.055C278 207.979 278.422 206.948 279.172 206.188C279.922 205.427 280.939 205 282 205C283.061 205 284.078 205.427 284.828 206.188C285.578 206.948 286 207.979 286 209.055Z" fill="#3F3D56"/>
<path d="M291.571 195H330.429C334.293 195 337.999 196.475 340.732 199.101C343.465 201.726 345 205.287 345 209H277C277 205.287 278.535 201.726 281.268 199.101C284.001 196.475 287.707 195 291.571 195Z" fill="#3F3D56"/>
<path d="M349.957 238H282.043C280.97 238 279.942 237.526 279.184 236.682C278.426 235.838 278 234.693 278 233.5C278 232.307 278.426 231.162 279.184 230.318C279.942 229.474 280.97 229 282.043 229H349.957C351.03 229 352.058 229.474 352.816 230.318C353.574 231.162 354 232.307 354 233.5C354 234.693 353.574 235.838 352.816 236.682C352.058 237.526 351.03 238 349.957 238Z" fill="#3F3D56"/>
<path d="M31.9004 214H101.1C103.806 214 106 211.862 106 209.224V207.776C106 205.138 103.806 203 101.1 203H31.9004C29.194 203 27 205.138 27 207.776V209.224C27 211.862 29.194 214 31.9004 214Z" fill="#3F3D56"/>
<path d="M31 208.548L29.741 213.672L25.1219 232.438L23.1299 240.546L13.8803 278.153V294.471C13.8827 295.27 13.6425 296.051 13.1908 296.714C12.8356 297.25 12.3527 297.691 11.7843 298H7.76695C7.1986 297.691 6.71565 297.25 6.36048 296.714C5.90866 296.051 5.6684 295.27 5.67074 294.471V277.18L15.9492 235.4L22.5826 208.419L0.0884296 102.888C-0.0228963 102.367 -0.0291716 101.829 0.0699568 101.306C0.169085 100.783 0.371675 100.284 0.666146 99.838C0.960617 99.3921 1.3412 99.0079 1.78612 98.7074C2.23104 98.4068 2.73158 98.1958 3.25913 98.0864C3.78668 97.9771 4.33088 97.9714 4.86063 98.0699C5.39038 98.1683 5.89528 98.3689 6.34647 98.6602C6.79766 98.9515 7.18629 99.3278 7.49014 99.7675C7.79399 100.207 8.00711 100.702 8.1173 101.223L28.9094 198.744L29.8672 203.241L30.9834 208.484L31 208.548Z" fill="#3F3D56"/>
<path d="M104 208.072V294.454C104.002 295.257 103.768 296.042 103.328 296.708C102.982 297.246 102.511 297.69 101.957 298H98.0372C97.486 297.688 97.0175 297.245 96.6719 296.708C96.2317 296.042 95.9976 295.257 96 294.454V208.072C96 206.992 96.4215 205.956 97.1716 205.193C97.9217 204.429 98.9391 204 100 204C101.061 204 102.078 204.429 102.828 205.193C103.579 205.956 104 206.992 104 208.072Z" fill="#3F3D56"/>
<path d="M106 208H27V205.895C27 204.07 27.3802 202.263 28.119 200.577C28.8578 198.892 29.9407 197.36 31.3059 196.07C32.671 194.779 34.2916 193.756 36.0752 193.058C37.8589 192.359 39.7705 192 41.7011 192H91.2989C95.1979 192 98.9372 193.464 101.694 196.07C104.451 198.675 106 202.21 106 205.895L106 208Z" fill="#3F3D56"/>
<path d="M99.9242 240H21.0758C19.9948 240 18.9581 239.631 18.1938 238.975C17.4294 238.319 17 237.428 17 236.5C17 235.572 17.4294 234.682 18.1938 234.025C18.9581 233.369 19.9948 233 21.0758 233H99.9242C101.005 233 102.042 233.369 102.806 234.025C103.571 234.682 104 235.572 104 236.5C104 237.428 103.571 238.319 102.806 238.975C102.042 239.631 101.005 240 99.9242 240Z" fill="#3F3D56"/>
<path d="M201.422 276L193 271.893L204.569 236L217 242.061L201.422 276Z" fill="#FFB6B6"/>
<path d="M260 272.762L250.608 275L237 240.303L250.862 237L260 272.762Z" fill="#FFB6B6"/>
<path d="M224.343 121.19C225.575 123.182 227.54 124.615 229.819 125.184C232.098 125.753 234.509 125.413 236.54 124.236C236.948 123.99 237.335 123.711 237.697 123.401L265 139L263.814 122.988L238.069 110.63C236.668 109.229 234.839 108.33 232.87 108.075C230.901 107.819 228.903 108.222 227.188 109.219C226.201 109.809 225.343 110.59 224.663 111.515C223.984 112.441 223.497 113.492 223.232 114.608C222.967 115.723 222.929 116.88 223.119 118.011C223.31 119.141 223.727 120.222 224.343 121.19Z" fill="#FFB6B6"/>
<path d="M253 133.105L257.728 136.012L278.961 149.077C280.356 149.957 281.909 150.552 283.532 150.826C285.154 151.101 286.814 151.05 288.417 150.676C290.021 150.303 291.535 149.615 292.874 148.65C294.213 147.686 295.351 146.465 296.222 145.057C297.794 142.443 298.351 139.334 297.784 136.331L288.346 88.757C287.998 86.8894 287.253 85.1198 286.165 83.5691C285.076 82.0185 283.668 80.7233 282.037 79.7722C280.407 78.821 278.592 78.2364 276.717 78.0582C274.842 77.88 272.95 78.1124 271.172 78.7396C268.184 79.7992 265.708 81.9678 264.248 84.8042C262.788 87.6406 262.454 90.9318 263.313 94.008L273.181 127.77L265.5 123.5L258.5 120L253 133.105Z" fill="#FD6584"/>
<path d="M241.671 263L227 233.451L227.002 233.383L228.45 179.185C228.468 178.703 228.507 178.219 228.566 177.742C228.822 175.569 229.506 173.469 230.578 171.564C231.651 169.659 233.09 167.988 234.812 166.647C236.462 165.351 238.352 164.398 240.372 163.843C242.392 163.288 244.502 163.143 246.579 163.416L288.532 168.868L289.987 162.893L290.258 162.794L330.455 148L330.687 148.379C335.951 156.981 339.632 174.164 340.634 179.226L340.649 179.298C340.67 179.405 340.683 179.47 340.687 179.489C342.756 188.126 334.206 202.434 325.688 204.584C307.746 209.177 291.7 205.595 273.119 201.446C266.457 199.958 259.571 198.42 251.987 197.09L252.212 201.573C252.397 205.023 253.111 208.424 254.328 211.656C255.68 215.633 256.749 218.775 254.49 225.326L253.397 228.494C253.964 230.067 254.159 231.751 253.967 233.413C253.775 235.075 253.202 236.669 252.291 238.07L252.072 238.407L261.747 262.994L241.671 263Z" fill="#E4E4E4"/>
<path d="M217.584 250L200 248.373L206.23 228.544C207.515 215.596 210.755 202.915 215.838 190.928L224.336 170.884C224.355 170.438 224.393 169.989 224.448 169.549C224.705 167.385 225.392 165.293 226.47 163.395C227.548 161.498 228.995 159.833 230.726 158.497C232.384 157.207 234.283 156.257 236.314 155.705C238.344 155.152 240.465 155.007 242.552 155.278L284.655 160.702L286.488 145.382L326.9 140L327.085 140.3C334.148 151.739 338.633 160.694 341.198 168.482C341.326 168.879 341.441 169.284 341.538 169.688C343.632 178.35 338.405 187.132 329.886 189.265C308.176 194.774 282.068 194.621 247.743 188.781L231.131 228.13C229.543 231.888 227.577 235.477 225.263 238.841L217.584 250Z" fill="#E4E4E4"/>
<path d="M278.5 52C289.822 52 299 42.598 299 31C299 19.402 289.822 10 278.5 10C267.178 10 258 19.402 258 31C258 42.598 267.178 52 278.5 52Z" fill="#FFB6B6"/>
<path d="M284.406 161L281.478 150.631L280.758 145.516L276.549 145.655L268.288 126.808L265.08 121.839C264.426 121.158 263.833 120.503 263.302 119.875C259.959 116.14 257.278 111.873 255.374 107.256C254.039 103.938 253.255 100.429 253.053 96.8639C252.454 86.3339 256.945 75.1932 266.782 62.8072C266.621 62.3687 266.513 61.9128 266.462 61.4491C266.286 59.9444 266.718 58.432 267.665 57.2408C268.611 56.0496 269.995 55.276 271.516 55.0883L281.004 54.0352C281.742 53.9526 282.489 54.0158 283.202 54.2213C283.915 54.4267 284.579 54.7702 285.156 55.2319C285.759 55.7094 286.26 56.3007 286.629 56.9714C286.998 57.642 287.229 58.3786 287.307 59.1382C287.434 60.3132 287.2 61.4988 286.636 62.5406C291.472 63.1475 296.029 65.1206 299.759 68.2233C303.489 71.3259 306.235 75.4264 307.667 80.0328C313.344 90.5093 317.869 101.557 321.165 112.987C321.814 115.226 321.525 117.532 321.245 119.763C320.987 121.823 320.72 123.954 321.169 126.078C321.626 128.238 322.725 130.405 323.889 132.699C325.223 135.326 326.601 138.043 326.974 140.812L327 141.007L284.406 161Z" fill="#FD6584"/>
<path opacity="0.2" d="M256 107.502C257.871 112.081 260.502 116.312 263.781 120.018C264.342 120.688 264.935 121.346 265.556 122.006L268.742 127C280.485 118.205 290 83.5753 290 83.5753L276.75 81L256 107.502Z" fill="#FFB6B6"/>
<path d="M247.79 53.2988C248.958 55.3023 249.297 57.682 248.735 59.9314C248.173 62.1808 246.754 64.1224 244.781 65.3431C244.376 65.5849 243.951 65.7928 243.512 65.9647L244.456 97L231 88.5396L232.166 60.365C231.594 58.4901 231.659 56.4787 232.351 54.6446C233.044 52.8105 234.325 51.2569 235.994 50.2263C236.966 49.6388 238.047 49.2519 239.171 49.0885C240.296 48.9251 241.442 48.9884 242.541 49.2749C243.641 49.5613 244.672 50.065 245.574 50.7561C246.475 51.4472 247.229 52.3118 247.79 53.2988Z" fill="#FFB6B6"/>
<path d="M245.884 85.4545L231 87.5725L231.64 118.416C231.677 120.617 232.276 122.771 233.379 124.675C234.483 126.578 236.055 128.168 237.945 129.292C240.254 130.652 242.943 131.224 245.605 130.921C248.268 130.619 250.76 129.458 252.706 127.615L287.846 93.7923C290.319 91.4453 291.798 88.2394 291.981 84.8341C292.163 81.4287 291.035 78.0828 288.828 75.4845C287.736 74.1907 286.395 73.1297 284.885 72.3645C283.375 71.5992 281.727 71.1452 280.038 71.0295C278.35 70.9138 276.655 71.1388 275.055 71.6909C273.455 72.2431 271.983 73.1113 270.724 74.244C270.377 74.5547 270.047 74.8839 269.735 75.2302L246.531 101.941L245.884 85.4545Z" fill="#FD6584"/>
<path d="M121.002 285L131.843 284.999L137 245L121 245.001L121.002 285Z" fill="#FFB6B6"/>
<path d="M61.5 52C73.3741 52 83 42.598 83 31C83 19.402 73.3741 10 61.5 10C49.6259 10 40 19.402 40 31C40 42.598 49.6259 52 61.5 52Z" fill="#FFB6B6"/>
<path d="M134.928 272H119.997L116.19 266.916L115.16 262.126L114.273 261.27C113.07 260.12 112.292 258.598 112.065 256.952C111.839 255.305 112.177 253.631 113.025 252.2L102.204 201.892C99.3695 201.644 67.4071 198.796 45.1892 194.878C39.5031 193.876 35.0638 191.121 31.9942 186.693C24.4517 175.809 27.6827 158.199 27.7162 158.023L27.7534 157.827L27.9527 157.804L79.8489 152L79.9188 152.033C81.641 152.846 122.173 172.019 128.797 178.619C131.788 181.6 138.461 199.307 139.955 218.132C140.222 221.504 139.259 224.939 138.328 228.261C137.456 231.368 136.555 234.582 136.733 237.62C137.008 242.307 137.268 247.224 137.507 252.234C137.545 253.033 138.149 253.859 138.733 254.658C139.342 255.492 139.918 256.281 139.955 257.106C140.31 265.106 135.062 271.83 135.009 271.897L134.928 272Z" fill="#060606"/>
<path d="M138.938 86.2815C137.793 85.9749 136.593 85.9179 135.423 86.1146C134.253 86.3112 133.142 86.7567 132.167 87.4197C131.191 88.0826 130.377 88.9469 129.779 89.9517C129.182 90.9564 128.817 92.0772 128.71 93.235L111 98.6561L111.739 110L136.639 102C138.637 102.048 140.583 101.375 142.109 100.111C143.635 98.847 144.634 97.0785 144.918 95.141C145.201 93.2034 144.749 91.2314 143.647 89.5985C142.545 87.9657 140.869 86.7854 138.938 86.2815Z" fill="#FFB6B6"/>
<path d="M127 105.553L113.952 110.473L113.618 111.117C112.818 112.663 111.435 113.829 109.772 114.359C108.109 114.889 106.302 114.739 104.751 113.942L75.4223 125C75.4223 125 62.3249 111.943 53 100.29L56.1781 80.817C56.9141 76.2987 58.4786 71.9541 60.7933 68C79.917 72.1775 90.8947 98.8093 90.8947 98.8093L125.36 92.258L127 105.553Z" fill="#A48AE6"/>
<path d="M58.2552 51.5128C53.0076 52.9707 47.2224 51.0324 43.1272 47.3555C39.032 43.6787 36.4703 38.4686 34.9943 33.087C33.9132 29.1457 33.4007 24.7706 35.1066 21.0704C36.8125 17.3703 41.4037 14.8738 44.9458 16.7429C42.7607 14.124 43.8523 9.79237 46.4043 7.55195C48.9563 5.31154 52.4607 4.66921 55.7982 4.31808C60.642 3.80851 65.6453 3.75148 70.2545 5.36578C74.8637 6.98007 79.0515 10.5094 80.4941 15.2934C81.9674 15.9991 83.6266 16.1821 85.2119 15.8139C86.7971 15.4457 88.2189 14.5471 89.2546 13.2586C89.5216 14.7384 89.3072 16.2674 88.6444 17.6092C87.9816 18.9509 86.9075 20.0306 85.5882 20.6811L92.6504 18.3257C93.8649 20.9703 91.7367 24.2435 89.0153 25.0904C86.2938 25.9373 83.3561 25.0116 80.7735 23.788C78.191 22.5645 75.6883 21.0176 72.8831 20.5404C70.0779 20.0632 66.7829 20.9904 65.4853 23.593C64.8057 24.9562 64.7703 26.5527 64.3757 28.0299C63.9811 29.5072 62.9816 31.0387 61.497 31.1596C60.5591 31.236 59.6408 30.722 58.7055 30.8271C57.5459 30.9574 56.6584 32.0379 56.3496 33.1951C56.1167 34.3743 56.1139 35.5893 56.3412 36.7696L58.1351 50.8755" fill="#1E1E20"/>
<path d="M32.0313 189C32.0273 189 32.0233 189 32.0194 188.999L31.8527 188.971L31.8045 188.81C31.1984 186.795 30.4272 184.733 29.6813 182.738C28.5829 179.975 27.6554 177.149 26.904 174.275C26.3126 171.527 25.9026 168.745 25.6765 165.944C25.4684 163.911 25.2532 161.809 24.8874 159.74C24.7249 158.821 25.3406 157.951 25.936 157.109C26.488 156.329 27.0094 155.592 26.9 154.895C26.7881 154.182 25.9882 153.399 25.2147 152.641C24.3669 151.811 23.4901 150.953 23.366 150.05C21.6761 137.724 20.8896 125.293 21.0125 112.855C21.1871 95.6454 21.9739 83.9153 23.3509 77.9897C27.0536 62.0568 44.16 59.1492 46.8376 58.7902C47.1228 58.0394 47.5613 57.3546 48.1257 56.7785C48.6902 56.2023 49.3686 55.7472 50.1187 55.4414C50.8688 55.1357 51.6745 54.9858 52.4858 55.0011C53.297 55.0164 54.0963 55.1966 54.8341 55.5304L66.9885 61.0304C69.454 62.1499 71.6602 63.7587 73.4701 65.7567C75.2799 67.7548 76.6548 70.0994 77.5092 72.6449L79.3148 78.086L80.2192 114.612L75.2072 140.333L85 154.853C32.8078 183.178 32.1994 189 32.0313 189Z" fill="#A48AE6"/>
<path d="M116 281.129L119.404 281.129L132.696 276L139.819 281.128H139.82C143.846 281.128 147.707 282.646 150.554 285.347C153.4 288.048 155 291.711 155 295.531V295.999L116.001 296L116 281.129Z" fill="black"/>
<path d="M143.017 113.094C142.016 112.505 140.899 112.144 139.745 112.035C138.59 111.926 137.425 112.072 136.333 112.463C135.24 112.853 134.247 113.479 133.422 114.296C132.597 115.112 131.961 116.1 131.558 117.19L113.441 117.898L111 126.35L136.756 127.671C138.629 128.226 140.64 128.075 142.408 127.245C144.176 126.415 145.579 124.964 146.351 123.167C147.123 121.37 147.209 119.352 146.595 117.496C145.98 115.639 144.707 114.073 143.017 113.094Z" fill="#FFB6B6"/>
<path d="M128 128L109.167 127.771L106.783 127.74L68.4657 127.269C68.4657 127.269 58.0604 117.587 49 107.62L50.2699 98.6613C51.5087 89.8695 55.9804 81.8162 62.853 76C75.8297 84.4566 83.3551 101.195 83.3551 101.195L95.9731 106.702C104.853 107.089 113.506 109.561 121.197 113.907L125.347 116.251L128 128Z" fill="#A48AE6"/>
<path d="M71 64C71 64.5523 70.5523 65 70 65C69.4477 65 69 64.5523 69 64C69 63.4477 69.4477 63 70 63C70.5523 63 71 63.4477 71 64Z" fill="black"/>
<path d="M75.975 69.7766C75.975 70.3289 75.5273 70.7766 74.975 70.7766C74.4227 70.7766 73.975 70.3289 73.975 69.7766C73.975 69.2243 74.4227 68.7766 74.975 68.7766C75.5273 68.7766 75.975 69.2243 75.975 69.7766Z" fill="black"/>
<path d="M73.6916 66.7223C73.6916 67.2746 73.2439 67.7223 72.6916 67.7223C72.1393 67.7223 71.6916 67.2746 71.6916 66.7223C71.6916 66.17 72.1393 65.7223 72.6916 65.7223C73.2439 65.7223 73.6916 66.17 73.6916 66.7223Z" fill="black"/>
<path d="M77.5 73.5C77.5 74.0523 77.0523 74.5 76.5 74.5C75.9477 74.5 75.5 74.0523 75.5 73.5C75.5 72.9477 75.9477 72.5 76.5 72.5C77.0523 72.5 77.5 72.9477 77.5 73.5Z" fill="black"/>
<path d="M79.1775 77.9843C79.1775 78.5366 78.7298 78.9843 78.1775 78.9843C77.6253 78.9843 77.1775 78.5366 77.1775 77.9843C77.1775 77.432 77.6253 76.9843 78.1775 76.9843C78.7298 76.9843 79.1775 77.432 79.1775 77.9843Z" fill="black"/>
<path d="M266 289.609L259.86 291.075L257.334 285.729L255.958 292.006L239.674 295.894C238.893 296.08 238.072 296.02 237.329 295.723C236.586 295.426 235.961 294.906 235.545 294.241C235.128 293.576 234.943 292.799 235.015 292.024C235.088 291.25 235.414 290.518 235.947 289.936L246.735 278.144L245.288 272.475L259.168 270L266 289.609Z" fill="black"/>
<path d="M199.562 292L193.684 289.566L194.9 283.502L189.947 288.019L174.355 281.564C173.608 281.254 172.977 280.711 172.556 280.012C172.135 279.314 171.945 278.497 172.014 277.681C172.083 276.865 172.407 276.093 172.939 275.478C173.471 274.862 174.183 274.435 174.971 274.259L190.932 270.691L193.223 265L206 271.215L199.562 292Z" fill="black"/>
<path d="M178.97 127H174.03C168.72 126.994 163.629 124.914 159.873 121.215C156.118 117.516 154.006 112.501 154 107.27V107H199V107.27C198.994 112.501 196.882 117.516 193.127 121.215C189.371 124.914 184.28 126.994 178.97 127Z" fill="#E4E4E4"/>
<path d="M174 99.5C174 100.881 171.5 102 171.5 102C171.5 102 169 100.881 169 99.5C169 98.1193 171.5 97 171.5 97C171.5 97 174 98.1193 174 99.5Z" fill="#3F3D56"/>
<path d="M189 99.5C189 100.881 186.5 102 186.5 102C186.5 102 184 100.881 184 99.5C184 98.1193 186.5 97 186.5 97C186.5 97 189 98.1193 189 99.5Z" fill="#3F3D56"/>
<path d="M179 104.5C179 105.881 176.5 107 176.5 107C176.5 107 174 105.881 174 104.5C174 103.119 176.5 102 176.5 102C176.5 102 179 103.119 179 104.5Z" fill="#3F3D56"/>
<path d="M162 95C163.105 95 164 93.8807 164 92.5C164 91.1193 163.105 90 162 90C160.895 90 160 91.1193 160 92.5C160 93.8807 160.895 95 162 95Z" fill="#3F3D56"/>
<path d="M126.937 87.0075L164.792 92.0696C165.134 92.1154 165.463 92.2278 165.76 92.4003C166.056 92.5727 166.313 92.8015 166.516 93.0729C166.718 93.3442 166.862 93.6525 166.938 93.979C167.013 94.3056 167.02 94.6436 166.957 94.9728C166.895 95.302 166.764 95.6154 166.572 95.8942C166.381 96.173 166.133 96.4113 165.844 96.5948C165.555 96.7782 165.23 96.9031 164.89 96.9617C164.55 97.0203 164.201 97.0116 163.864 96.9359L126.638 88.5761C126.432 88.5297 126.251 88.4079 126.135 88.236C126.019 88.0642 125.975 87.8555 126.014 87.6534C126.052 87.4514 126.17 87.2715 126.342 87.1511C126.514 87.0308 126.727 86.9794 126.937 87.0075Z" fill="#E4E4E4"/>
<path d="M332.763 21.5216C329.322 17.5304 327.687 12.235 324.936 7.70273C322.186 3.17043 317.4 -0.885988 312.344 0.168719C308.859 0.895829 306.165 3.95553 304.802 7.36674C303.438 10.7779 303.183 14.5398 302.944 18.2252C303.028 10.6516 298.013 3.30956 291.104 0.892941C284.195 -1.52368 275.927 1.17194 271.586 7.25639C269.692 5.5095 267.219 4.51481 264.636 4.46088C262.054 4.40695 259.541 5.29752 257.575 6.96378C253.691 10.4165 252.832 16.9882 255.688 21.3922C258.544 25.7963 264.728 27.4369 269.267 24.9944L270.871 26.4627C269.968 29.6051 271.719 33.3171 274.663 34.5001C277.051 35.4594 280.421 35.2997 281.314 37.7922C281.939 39.5337 280.772 41.3926 279.531 42.7309C278.29 44.0691 276.816 45.4511 276.667 47.303C276.442 50.0972 279.344 52.0545 281.982 52.644C288.344 54.0655 295.403 51.1346 299.07 45.549C299.141 45.4413 299.218 45.3335 299.301 45.2255C301.358 42.6081 302.857 39.601 303.707 36.3878C304.557 33.1745 304.739 29.8227 304.242 26.5371C304.036 25.2461 304.244 24.2859 305.139 23.9801C309.006 22.6586 319.84 25.4322 323.119 27.9388C326.398 30.4455 329.024 33.7628 332.182 36.4312C335.34 39.0997 339.365 41.158 343.375 40.4314C346.587 39.8494 349.319 37.5296 351.157 34.7315C352.995 31.9335 354.053 28.6719 355 25.4305C347.898 29.5123 338.178 27.8036 332.763 21.5216Z" fill="#1E1E20"/>
<g filter="url(#filter0_f_105_412)">
<ellipse cx="135" cy="296.5" rx="19" ry="0.5" fill="#D9D9D9"/>
</g>
<path d="M285 160C284 160.5 296.333 155 297.5 154.5L300.5 153C300.5 153 326 140 327 140.5C328 141 327.5 139.5 327 139.5" stroke="black" stroke-width="2.5" stroke-linecap="round"/>
<g filter="url(#filter1_d_105_412)">
<path d="M324 139L326 143" stroke="#D8D8D8" stroke-linecap="round"/>
</g>
<g filter="url(#filter2_d_105_412)">
<path d="M310 146L312 150" stroke="#D8D8D8" stroke-linecap="round"/>
</g>
<g filter="url(#filter3_d_105_412)">
<path d="M296.52 152L298 155.5L299 157" stroke="#D8D8D8" stroke-linecap="round"/>
</g>
<path d="M296.65 152C296.65 152.083 296.583 152.15 296.5 152.15C296.417 152.15 296.35 152.083 296.35 152C296.35 151.917 296.417 151.85 296.5 151.85C296.583 151.85 296.65 151.917 296.65 152Z" fill="white"/>
<path d="M310.3 146.15C310.3 146.233 310.233 146.3 310.15 146.3C310.067 146.3 310 146.233 310 146.15C310 146.067 310.067 146 310.15 146C310.233 146 310.3 146.067 310.3 146.15Z" fill="white"/>
<path d="M312.3 150.15C312.3 150.233 312.233 150.3 312.15 150.3C312.067 150.3 312 150.233 312 150.15C312 150.067 312.067 150 312.15 150C312.233 150 312.3 150.067 312.3 150.15Z" fill="white"/>
<path d="M299.3 157.15C299.3 157.233 299.233 157.3 299.15 157.3C299.067 157.3 299 157.233 299 157.15C299 157.067 299.067 157 299.15 157C299.233 157 299.3 157.067 299.3 157.15Z" fill="white"/>
<path d="M326.3 143.15C326.3 143.233 326.233 143.3 326.15 143.3C326.067 143.3 326 143.233 326 143.15C326 143.067 326.067 143 326.15 143C326.233 143 326.3 143.067 326.3 143.15Z" fill="white"/>
<path d="M324.3 139.15C324.3 139.233 324.233 139.3 324.15 139.3C324.067 139.3 324 139.233 324 139.15C324 139.067 324.067 139 324.15 139C324.233 139 324.3 139.067 324.3 139.15Z" fill="white"/>
<path d="M12.5 298.877C12.5 298.877 11.1988 299 9.81806 299C8.43734 299 8.45453 299 7 298.877C7 298.601 8.43734 298.5 9.81806 298.5C11.1988 298.5 12.5 298.601 12.5 298.877Z" fill="#D9D9D9"/>
<path d="M102.682 298.877C102.682 298.877 101.381 299 99.9999 299C98.6192 299 98.6364 299 97.1819 298.877C97.1819 298.601 98.6192 298.5 99.9999 298.5C101.381 298.5 102.682 298.601 102.682 298.877Z" fill="#D9D9D9"/>
<path d="M69.5 297.377C69.5 297.377 68.1988 297.5 66.8181 297.5C65.4373 297.5 65.4545 297.5 64 297.377C64 297.101 65.4373 297 66.8181 297C68.1988 297 69.5 297.101 69.5 297.377Z" fill="#D9D9D9"/>
<path d="M258.5 297.377C258.5 297.377 257.199 297.5 255.818 297.5C254.437 297.5 254.455 297.5 253 297.377C253 297.101 254.437 297 255.818 297C257.199 297 258.5 297.101 258.5 297.377Z" fill="#D9D9D9"/>
<path d="M285.5 299.377C285.5 299.377 283.962 299.5 282.33 299.5C280.699 299.5 280.719 299.5 279 299.377C279 299.101 280.699 299 282.33 299C283.962 299 285.5 299.101 285.5 299.377Z" fill="#D9D9D9"/>
<path d="M363.5 299.377C363.5 299.377 361.962 299.5 360.33 299.5C358.699 299.5 358.719 299.5 357 299.377C357 299.101 358.699 299 360.33 299C361.962 299 363.5 299.101 363.5 299.377Z" fill="#D9D9D9"/>
<ellipse cx="135" cy="297.5" rx="19" ry="0.5" fill="#D9D9D9"/>
<defs>
<filter id="filter0_f_105_412" x="112" y="292" width="46" height="9" filterUnits="userSpaceOnUse" color-interpolation-filters="sRGB">
<feFlood flood-opacity="0" result="BackgroundImageFix"/>
<feBlend mode="normal" in="SourceGraphic" in2="BackgroundImageFix" result="shape"/>
<feGaussianBlur stdDeviation="2" result="effect1_foregroundBlur_105_412"/>
</filter>
<filter id="filter1_d_105_412" x="273.5" y="92.4999" width="103" height="105" filterUnits="userSpaceOnUse" color-interpolation-filters="sRGB">
<feFlood flood-opacity="0" result="BackgroundImageFix"/>
<feColorMatrix in="SourceAlpha" type="matrix" values="0 0 0 0 0 0 0 0 0 0 0 0 0 0 0 0 0 0 127 0" result="hardAlpha"/>
<feOffset dy="4"/>
<feGaussianBlur stdDeviation="25"/>
<feComposite in2="hardAlpha" operator="out"/>
<feColorMatrix type="matrix" values="0 0 0 0 0.247059 0 0 0 0 0.239216 0 0 0 0 0.337255 0 0 0 1 0"/>
<feBlend mode="normal" in2="BackgroundImageFix" result="effect1_dropShadow_105_412"/>
<feBlend mode="normal" in="SourceGraphic" in2="effect1_dropShadow_105_412" result="shape"/>
</filter>
<filter id="filter2_d_105_412" x="259.5" y="99.4999" width="103" height="105" filterUnits="userSpaceOnUse" color-interpolation-filters="sRGB">
<feFlood flood-opacity="0" result="BackgroundImageFix"/>
<feColorMatrix in="SourceAlpha" type="matrix" values="0 0 0 0 0 0 0 0 0 0 0 0 0 0 0 0 0 0 127 0" result="hardAlpha"/>
<feOffset dy="4"/>
<feGaussianBlur stdDeviation="25"/>
<feComposite in2="hardAlpha" operator="out"/>
<feColorMatrix type="matrix" values="0 0 0 0 0.247059 0 0 0 0 0.239216 0 0 0 0 0.337255 0 0 0 1 0"/>
<feBlend mode="normal" in2="BackgroundImageFix" result="effect1_dropShadow_105_412"/>
<feBlend mode="normal" in="SourceGraphic" in2="effect1_dropShadow_105_412" result="shape"/>
</filter>
<filter id="filter3_d_105_412" x="246.02" y="105.5" width="103.48" height="106" filterUnits="userSpaceOnUse" color-interpolation-filters="sRGB">
<feFlood flood-opacity="0" result="BackgroundImageFix"/>
<feColorMatrix in="SourceAlpha" type="matrix" values="0 0 0 0 0 0 0 0 0 0 0 0 0 0 0 0 0 0 127 0" result="hardAlpha"/>
<feOffset dy="4"/>
<feGaussianBlur stdDeviation="25"/>
<feComposite in2="hardAlpha" operator="out"/>
<feColorMatrix type="matrix" values="0 0 0 0 0.247059 0 0 0 0 0.239216 0 0 0 0 0.337255 0 0 0 1 0"/>
<feBlend mode="normal" in2="BackgroundImageFix" result="effect1_dropShadow_105_412"/>
<feBlend mode="normal" in="SourceGraphic" in2="effect1_dropShadow_105_412" result="shape"/>
</filter>
</defs>
</svg>
