<svg width="320" height="371" viewBox="0 0 320 371" fill="none" xmlns="http://www.w3.org/2000/svg">
<path d="M264.74 322.307C264.74 325.068 262.501 327.307 259.739 327.307L257.815 327.306C255.333 327.306 253.226 325.485 252.868 323.029L248.978 296.394C248.537 293.377 250.876 290.671 253.926 290.671L259.742 290.672C262.503 290.672 264.742 292.91 264.741 295.672L264.74 322.307Z" fill="#FFB6B6"/>
<path d="M226.25 329.51C226.25 329.212 226.294 328.633 226.381 328.061C226.425 327.776 226.478 327.497 226.541 327.26C226.605 327.017 226.673 326.838 226.737 326.737C227.121 326.136 227.639 325.881 228.284 325.753C228.612 325.687 228.969 325.656 229.357 325.628C229.434 325.623 229.513 325.618 229.594 325.612C229.91 325.591 230.243 325.569 230.584 325.53L237.03 324.793C237.873 324.696 238.681 324.396 239.384 323.919L249.476 317.06C250.835 316.136 252.691 316.549 253.53 317.962C253.693 318.236 253.9 318.495 254.144 318.71C255.993 320.335 257.696 321.076 259.193 321.293C259.553 321.345 259.925 321.394 260.302 321.443C261.631 321.616 263.026 321.797 264.201 322.186C264.95 322.434 265.585 322.759 266.043 323.202C266.495 323.639 266.783 324.199 266.831 324.944C266.925 326.416 266.735 327.655 266.567 328.414C266.443 328.973 266.338 329.555 266.338 330.151V330.619C266.338 331.779 265.321 332.75 264.026 332.75H229.756C227.802 332.75 226.25 331.282 226.25 329.51Z" fill="#898989" stroke="black" stroke-width="0.5"/>
<path d="M299.506 322.307C299.506 325.068 297.267 327.307 294.505 327.307L292.581 327.306C290.099 327.306 287.992 325.485 287.634 323.029L283.744 296.394C283.303 293.377 285.643 290.671 288.692 290.671L294.508 290.672C297.269 290.672 299.508 292.91 299.508 295.672L299.506 322.307Z" fill="#FFB6B6"/>
<path d="M260.25 329.316C260.25 329 260.295 328.388 260.385 327.783C260.429 327.482 260.484 327.187 260.548 326.936C260.614 326.678 260.684 326.487 260.752 326.379C261.148 325.74 261.68 325.472 262.34 325.336C262.676 325.267 263.041 325.234 263.439 325.205C263.518 325.199 263.599 325.194 263.681 325.188C264.005 325.166 264.347 325.142 264.696 325.101L271.301 324.322C272.163 324.221 272.987 323.907 273.698 323.409L284.001 316.193C285.407 315.209 287.355 315.641 288.212 317.128C288.374 317.409 288.58 317.674 288.823 317.896C290.849 319.751 292.681 320.662 294.253 321.025C294.619 321.109 295 321.19 295.388 321.273C296.59 321.528 297.859 321.797 298.954 322.231C300.399 322.803 301.449 323.626 301.647 324.991C301.838 326.311 301.73 327.383 301.594 328.085C301.586 328.127 301.577 328.168 301.569 328.211C301.452 328.809 301.328 329.44 301.328 330.079V330.487C301.328 331.727 300.275 332.75 298.954 332.75H263.847C261.85 332.75 260.25 331.202 260.25 329.316Z" fill="#898989" stroke="black" stroke-width="0.5"/>
<path d="M257.957 125.59C258.423 122.824 256.454 120.149 253.605 119.877C249.546 119.488 243.951 119.216 239.98 120.067C238.894 120.3 237.752 120.328 236.676 119.973L193.205 105.604C191.053 104.893 188.742 105.661 187.542 107.487L186.119 109.652C184.51 112.099 185.476 115.474 188.184 116.872L231.518 139.232C232.134 139.549 232.804 139.742 233.486 139.798L250.821 141.211C253.358 141.418 255.577 139.723 255.992 137.261L257.957 125.59Z" fill="#FFB6B6"/>
<path d="M257.957 125.59C258.423 122.824 256.454 120.149 253.605 119.876C249.595 119.493 244.087 119.223 240.125 120.037C238.949 120.278 237.706 120.277 236.563 119.833L207.279 108.467C205.068 107.609 202.612 108.355 201.36 110.266L195.248 119.596C194.591 120.598 195.013 121.98 196.139 122.513L231.587 139.304C232.158 139.574 232.771 139.739 233.394 139.79L250.821 141.211C253.358 141.418 255.577 139.723 255.992 137.261L257.957 125.59Z" fill="#A48AE6"/>
<path d="M182.257 115.34C189.579 117.541 196.819 116.229 198.429 112.41C200.039 108.591 195.408 103.711 188.086 101.51C180.764 99.3098 173.524 100.622 171.914 104.441C170.305 108.26 174.936 113.139 182.257 115.34Z" fill="#FFB6B6"/>
<path d="M252.381 158.156C252.227 158.168 252.085 158.211 251.956 158.294C250.355 159.316 239.381 166.806 243.371 177.624C243.425 177.769 243.448 177.929 243.434 178.083L239.738 217.515C239.733 217.566 239.733 217.617 239.736 217.667L245.618 317.952C245.642 318.369 245.924 318.727 246.324 318.85L255.995 321.798L265.447 323.74C266.057 323.865 266.632 323.408 266.648 322.785L268.7 240.77C268.702 240.696 268.712 240.623 268.73 240.551L277.81 204.367C277.922 203.922 278.322 203.611 278.78 203.611H279.292C279.844 203.611 280.292 204.058 280.292 204.611V317.91C280.292 318.348 280.577 318.735 280.995 318.865L290.448 321.798L300.223 323.754C300.821 323.873 301.384 323.475 301.415 322.865C301.88 313.691 305.003 250.94 303.469 248.348C303.356 248.158 303.259 247.991 303.175 247.845C302.754 247.109 303.774 246.541 303.975 245.717L317.092 191.862C317.115 191.767 317.124 191.669 317.119 191.572L315.113 154.304C315.082 153.743 314.596 153.317 314.037 153.36L252.381 158.156Z" fill="black"/>
<path d="M286.658 53.4336C285.347 52.5323 283.686 52.3086 282.183 52.8311L263.989 59.1578C262.072 59.8245 261.106 61.9632 261.875 63.8417V63.8417C262.505 65.3831 261.976 67.1555 260.604 68.099L246.038 78.1143C244.231 79.3561 243.445 81.6295 244.097 83.7221L255.927 121.679C256.174 122.473 256.22 123.315 256.059 124.13L250.034 154.818C249.414 157.978 251.898 160.891 255.117 160.778L270.438 160.238L311.889 156.845C314.691 156.616 316.753 154.123 316.453 151.328L312.011 109.93L312.775 68.6318C312.815 66.446 311.431 64.4874 309.357 63.796L295.22 59.0834C294.776 58.9353 294.355 58.7255 293.969 58.4601L286.658 53.4336Z" fill="#A48AE6"/>
<path d="M253.11 89.3825C252.439 86.8967 249.989 85.3272 247.45 85.756L246.655 85.8904C246.036 85.9949 245.434 86.2133 245.015 86.6807C244.157 87.6379 242.821 89.8148 242.821 94.0873C242.821 99.4184 242.821 103.244 243.325 106.414C243.496 107.494 243.409 108.604 242.997 109.617C241.708 112.788 239.065 119.898 240.338 122.048C241.379 123.806 249.944 124.459 256.162 124.701C259.451 124.829 261.843 121.719 260.985 118.541L253.11 89.3825Z" fill="#A48AE6"/>
<path d="M287 36C287 46.4934 278.493 55 268 55C257.507 55 249 46.4934 249 36C249 25.5066 257.507 17 268 17C278.493 17 287 25.5066 287 36Z" fill="#FFB6B6"/>
<path d="M289.757 103.524C287.146 102.599 284.289 103.979 283.686 106.682C283.201 108.861 282.774 111.488 282.798 113.931C282.813 115.445 282.404 116.972 281.395 118.101L252.521 150.408C250.615 152.54 250.883 155.834 253.108 157.63L255.505 159.565C257.342 161.048 259.967 161.044 261.799 159.555L299.387 129.011C300.007 128.506 300.498 127.86 300.818 127.126L306.101 114.994C307.258 112.336 305.92 109.253 303.187 108.285L289.757 103.524Z" fill="#FFB6B6"/>
<path d="M289.757 103.525C287.146 102.599 284.289 103.979 283.686 106.682C283.201 108.861 282.774 111.488 282.798 113.931C282.813 115.445 282.404 116.972 281.395 118.101L255 146.5C253.094 148.632 255.275 150.704 257.5 152.5L260 155C261.837 156.483 263.668 159.489 265.5 158L299.387 129.011C300.007 128.506 300.498 127.86 300.817 127.126L306.101 114.994C307.258 112.336 305.92 109.253 303.187 108.285L289.757 103.525Z" fill="#A48AE6"/>
<path d="M256.069 167.904C260.751 162.666 261.441 156.44 257.609 153.998C253.778 151.556 246.876 153.823 242.195 159.061C237.513 164.3 236.823 170.526 240.655 172.968C244.486 175.41 251.388 173.143 256.069 167.904Z" fill="#FFB6B6"/>
<path d="M309.006 65.0449C309.513 64.9898 310.016 65.0738 310.494 65.249C312.859 66.1153 320.138 69.2289 319.007 74.3905C318.085 78.6029 317.554 81.8317 317.312 83.4474C317.199 84.1998 317.29 84.9641 317.428 85.7124C317.636 86.8431 317.744 88.5682 316.801 89.6237C315.75 90.7988 311.652 100.823 309.303 106.691C308.343 109.09 305.725 110.376 303.243 109.659L285.436 104.52C282.549 103.687 281.055 100.534 282.359 97.8266C287.219 87.7348 298.751 66.1624 309.006 65.0449Z" fill="#A48AE6"/>
<path d="M238.3 325.247L247.668 319.374" stroke="#898989"/>
<path d="M272.934 325.339L282.409 319.374" stroke="#898989"/>
<rect width="1.14078" height="0.489417" transform="matrix(0.983095 -0.183098 0.252691 0.967547 237.332 325.159)" fill="#898989"/>
<rect width="1.22035" height="0.424459" transform="matrix(0.983095 -0.183098 0.252691 0.967547 271.802 325.222)" fill="#898989"/>
<ellipse cx="239.916" cy="324.223" rx="0.287111" ry="0.242457" fill="black"/>
<path d="M274.944 324.223C274.944 324.357 274.815 324.465 274.657 324.465C274.498 324.465 274.37 324.357 274.37 324.223C274.37 324.089 274.498 323.98 274.657 323.98C274.815 323.98 274.944 324.089 274.944 324.223Z" fill="black"/>
<path d="M276.379 323.353C276.379 323.487 276.251 323.595 276.092 323.595C275.934 323.595 275.805 323.487 275.805 323.353C275.805 323.219 275.934 323.11 276.092 323.11C276.251 323.11 276.379 323.219 276.379 323.353Z" fill="black"/>
<path d="M278.102 322.283C278.102 322.417 277.974 322.526 277.815 322.526C277.656 322.526 277.528 322.417 277.528 322.283C277.528 322.149 277.656 322.041 277.815 322.041C277.974 322.041 278.102 322.149 278.102 322.283Z" fill="black"/>
<path d="M279.776 321.206C279.776 321.34 279.648 321.448 279.489 321.448C279.331 321.448 279.202 321.34 279.202 321.206C279.202 321.072 279.331 320.963 279.489 320.963C279.648 320.963 279.776 321.072 279.776 321.206Z" fill="black"/>
<path d="M281.296 320.258C281.296 320.392 281.168 320.5 281.009 320.5C280.85 320.5 280.722 320.392 280.722 320.258C280.722 320.124 280.85 320.015 281.009 320.015C281.168 320.015 281.296 320.124 281.296 320.258Z" fill="black"/>
<path d="M241.796 323.227C241.796 323.361 241.668 323.47 241.509 323.47C241.351 323.47 241.222 323.361 241.222 323.227C241.222 323.093 241.351 322.985 241.509 322.985C241.668 322.985 241.796 323.093 241.796 323.227Z" fill="black"/>
<path d="M243.24 322.327C243.24 322.461 243.111 322.57 242.953 322.57C242.794 322.57 242.666 322.461 242.666 322.327C242.666 322.194 242.794 322.085 242.953 322.085C243.111 322.085 243.24 322.194 243.24 322.327Z" fill="black"/>
<path d="M244.801 321.353C244.801 321.487 244.672 321.596 244.514 321.596C244.355 321.596 244.227 321.487 244.227 321.353C244.227 321.219 244.355 321.111 244.514 321.111C244.672 321.111 244.801 321.219 244.801 321.353Z" fill="black"/>
<path d="M246.424 320.33C246.424 320.464 246.295 320.572 246.137 320.572C245.978 320.572 245.85 320.464 245.85 320.33C245.85 320.196 245.978 320.087 246.137 320.087C246.295 320.087 246.424 320.196 246.424 320.33Z" fill="black"/>
<path d="M276.244 50.9871C281.677 50.8743 286.705 47.4517 289.639 42.885C292.573 38.3183 293.619 32.7547 293.576 27.3355C293.545 23.3666 292.85 19.1533 290.209 16.1889C287.568 13.2245 282.483 12.1876 279.589 14.9178C280.977 11.8699 278.754 8.14623 275.696 6.77658C272.638 5.40693 269.1 5.79045 265.801 6.39815C261.012 7.28011 256.194 8.6277 252.207 11.4197C248.22 14.2116 245.156 18.667 245.069 23.521C243.846 24.5898 242.303 25.2246 240.681 25.3259C239.06 25.4272 237.451 24.9892 236.107 24.0806C236.252 25.5319 236.873 26.8942 237.873 27.9567C238.873 29.0193 240.197 29.7229 241.64 29.9587L234.222 29.7447C233.773 32.5448 236.704 34.9938 239.546 35.0197C242.389 35.0456 244.958 33.3621 247.105 31.501C249.253 29.6399 251.236 27.5003 253.799 26.2711C256.363 25.0419 259.778 24.9821 261.729 27.0398C262.751 28.1176 263.218 29.5927 263.998 30.8564C264.777 32.1201 266.152 33.265 267.61 32.9618C268.532 32.7703 269.274 32.0351 270.2 31.8711C271.349 31.6677 272.494 32.4243 273.104 33.4143C273.648 34.446 273.98 35.5754 274.082 36.737L276.186 50.3607" fill="#1E1E20"/>
<path opacity="0.2" d="M72.2306 155.228C76.3938 157.9 80.9782 159.851 85.7912 160.999C86.6359 161.225 87.4996 161.422 88.3865 161.605L93.864 163.862C98.4197 149.915 86.3042 116.108 86.3042 116.108L73.9809 121.615L72.2306 155.228Z" fill="#A48AE6"/>
<path d="M78.5238 92.4084L97 100.5L100.124 105.891C100.124 105.891 118.5 124.5 120 126.5C121.5 128.5 106.77 158.4 106.77 158.4L114.247 193.88L91.9998 190.5L48.4999 187L51.1085 146.337L50.9999 104.5L68.5546 98.7948L78.5238 92.4084Z" fill="#FD6584"/>
<path d="M100.002 349C100.002 351.761 102.241 354 105.002 354L107.19 353.999C109.676 353.999 111.784 352.173 112.139 349.713L116.176 321.714C116.611 318.7 114.272 316 111.227 316L105 316.001C102.238 316.001 100 318.24 100 321.001L100.002 349Z" fill="#FFB6B6"/>
<path d="M65.9996 346C65.9997 348.761 68.2385 351 70.9999 351L72.9606 351C75.423 350.999 77.5186 349.206 77.9 346.774L81.6783 322.669C82.1538 319.636 79.8086 316.895 76.7384 316.895L70.9977 316.895C68.2363 316.895 65.9978 319.134 65.998 321.895L65.9996 346Z" fill="#FFB6B6"/>
<path d="M110.866 144.621C113.168 143.162 116.339 143.873 117.733 146.316C119.48 149.379 121.563 153.565 122.295 157.192C122.526 158.338 122.993 159.455 123.815 160.332L156.382 195.038C157.965 196.725 158.239 199.177 157.051 201.02L156.14 202.432C154.499 204.978 150.804 205.336 148.436 203.178L113.286 171.152C112.795 170.705 112.393 170.173 112.103 169.587L104.317 153.854C103.214 151.626 103.905 149.033 105.946 147.74L110.866 144.621Z" fill="#FFB6B6"/>
<path d="M114.361 142.907C114.799 142.63 115.396 142.739 115.717 143.172C117.505 145.579 122.848 153.234 123.089 159.038C123.1 159.296 123.202 159.546 123.388 159.74L147.922 185.236C148.3 185.63 148.309 186.227 147.942 186.594L139.779 194.758C139.402 195.135 138.766 195.131 138.354 194.749L112.784 171.047C112.689 170.959 112.611 170.854 112.554 170.74L102.883 151.198C102.662 150.753 102.801 150.234 103.209 149.975L114.361 142.907Z" fill="#FD6584"/>
<path d="M151.657 207.274C145.219 203.241 141.254 197.068 142.802 193.486C144.35 189.904 150.823 190.269 157.262 194.302C163.7 198.335 167.665 204.508 166.117 208.09C164.57 211.672 158.096 211.307 151.657 207.274Z" fill="#FFB6B6"/>
<path d="M112.784 191.519C113.03 191.536 113.256 191.643 113.397 191.845C114.105 192.869 116.356 196.868 118.908 209.124C118.926 209.212 118.933 209.305 118.927 209.395L116.867 241V332C116.867 332.552 116.419 333 115.867 333H107.039H101.867H98.6694C98.1407 333 97.7034 332.589 97.6712 332.061L91.5137 231.065C91.4416 229.884 89.7393 229.785 89.5311 230.95L81.7091 274.715C81.6988 274.773 81.6935 274.832 81.6935 274.891V332C81.6935 332.552 81.2458 333 80.6935 333H72.3829H64.4999C63.9839 333 63.5558 332.64 63.5082 332.126C62.8551 325.078 58.5339 277.72 60.1175 275.316C60.1957 275.197 60.2668 275.088 60.3312 274.988C60.7992 274.263 59.9054 273.453 59.7713 272.6L51.4999 220L48.2593 188.182C48.1964 187.564 48.705 187.04 49.3239 187.083L112.784 191.519Z" fill="#E4E4E4"/>
<path d="M109.916 127.361C110.617 124.942 113.008 123.423 115.496 123.814L116.457 123.965C117.045 124.058 117.62 124.252 118.034 124.679C118.89 125.562 120.241 127.589 120.241 131.589C120.241 136.656 120.241 140.262 119.705 143.25C119.545 144.142 119.552 145.061 119.789 145.936C120.59 148.905 122.295 155.962 121 158C119.992 159.586 112.557 160.064 106.904 160.196C103.617 160.272 101.29 157.12 102.205 153.962L109.916 127.361Z" fill="#FD6584"/>
<path d="M113.47 205.062C108.792 200.186 108.103 194.389 111.932 192.116C115.76 189.843 122.655 191.953 127.333 196.83C132.011 201.707 132.7 207.503 128.872 209.776C125.043 212.05 118.148 209.939 113.47 205.062Z" fill="#FFB6B6"/>
<path d="M54.9877 104.141C53.9353 104.006 52.7897 104.015 51.7616 104.277C50.5531 104.585 48.7694 105.589 46.7757 108.513C46.2438 109.293 45.5502 110.069 45.4144 111.003C45.097 113.187 45.802 117.388 45.9665 118.316C45.9885 118.44 45.968 118.39 46.003 118.511V118.511C46.9435 121.768 49.0072 132.125 50.4002 135.216C51.6073 137.894 52.8504 140.753 53.8091 142.984C54.7967 145.282 57.3189 146.512 59.7346 145.863L77.0698 141.201C80.1682 140.368 81.6802 136.896 80.0815 134.115C74.5077 124.416 62.5266 105.103 54.9877 104.141Z" fill="#FD6584"/>
<path d="M77.7595 143.06C80.2198 142.455 82.7448 143.791 83.3492 146.251C83.8354 148.231 84.2789 150.646 84.2973 152.92C84.3103 154.527 84.768 156.152 85.8878 157.306L118.36 190.751C120.344 192.794 120.223 196.079 118.095 197.971L116.41 199.469C114.478 201.186 111.556 201.148 109.67 199.381L71.2011 163.344C70.7379 162.91 70.3615 162.392 70.0921 161.817L65.5884 152.21C64.2492 149.353 65.8584 145.985 68.9224 145.232L77.7595 143.06Z" fill="#FFB6B6"/>
<path d="M81.2102 142.212C81.7022 142.091 82.204 142.355 82.3641 142.836C83.0643 144.938 84.7442 150.589 84.1863 154.931C84.1431 155.268 84.254 155.608 84.5018 155.84L111.116 180.675C111.575 181.103 111.53 181.843 111.024 182.213L99.6891 190.496C99.2921 190.786 98.7431 190.745 98.3943 190.398L70.6254 162.812C70.5423 162.73 70.4744 162.633 70.4247 162.527L63.5175 147.792C63.2497 147.22 63.5715 146.547 64.1843 146.396L81.2102 142.212Z" fill="#FD6584"/>
<path d="M90.4999 83C79.1781 83 69.9999 73.598 69.9999 62C69.9999 50.402 79.1781 41 90.4999 41C101.822 41 111 50.402 111 62C111 73.598 101.822 83 90.4999 83Z" fill="#FFB6B6"/>
<path d="M36.2374 52.5216C39.6777 48.5304 41.3132 43.235 44.0635 38.7027C46.8137 34.1704 51.5996 30.114 56.6557 31.1687C60.141 31.8958 62.8345 34.9555 64.1982 38.3667C65.5615 41.7779 65.8171 45.5398 66.0561 49.2252C65.9717 41.6516 70.9871 34.3096 77.8961 31.8929C84.8045 29.4763 93.0726 32.1719 97.4138 38.2564C99.3083 36.5095 101.781 35.5148 104.364 35.4609C106.946 35.4069 109.459 36.2975 111.425 37.9638C115.308 41.4165 116.168 47.9882 113.312 52.3922C110.456 56.7963 104.272 58.4369 99.7334 55.9943L98.1289 57.4627C99.032 60.6051 97.2806 64.3171 94.3365 65.5001C91.9492 66.4594 88.5789 66.2997 87.6855 68.7922C87.0612 70.5337 88.2281 72.3926 89.4694 73.7309C90.7104 75.0691 92.184 76.4511 92.333 78.303C92.5583 81.0972 89.6559 83.0545 87.0174 83.644C80.6555 85.0655 73.5965 82.1346 69.9297 76.549C69.859 76.4413 69.7822 76.3335 69.6992 76.2255C67.6419 73.6081 66.1427 70.601 65.293 67.3878C64.4434 64.1745 64.2612 60.8227 64.7576 57.5371C64.9639 56.2461 64.756 55.2859 63.8613 54.9801C59.9943 53.6586 49.1601 56.4322 45.8813 58.9388C42.6022 61.4455 39.9764 64.7628 36.8182 67.4312C33.6596 70.0997 29.6349 72.158 25.6247 71.4314C22.4129 70.8494 19.6806 68.5296 17.8427 65.7315C16.0051 62.9335 14.9474 59.6719 13.9999 56.4305C21.1023 60.5123 30.8224 58.8036 36.2374 52.5216Z" fill="#1E1E20"/>
<path d="M98.4999 163L95.2655 156.5L96.3069 144.5L97.9999 150L90.004 140.256L92.2018 143.89C102.122 127.551 94.1981 127.674 78.9999 138C75.657 134.265 66.2784 144.873 64.3735 140.256C63.0389 136.938 62.2552 133.429 62.0527 129.864C61.454 119.334 64.1625 107.886 73.9999 95.5C73.8387 95.0616 75.5134 94.9128 75.4618 94.4491C75.2859 92.9444 75.7182 91.432 76.6647 90.2408C77.6112 89.0496 78.9952 88.276 80.5157 88.0883L90.004 87.0352C90.7418 86.9526 91.4889 87.0158 92.2018 87.2213C92.9147 87.4267 93.5791 87.7702 94.1564 88.2319C94.7591 88.7094 95.2596 89.3007 95.6288 89.9714C95.998 90.642 96.2285 91.3786 96.3069 92.1382C96.4339 93.3132 97.5642 101.458 96.9999 102.5C101.836 103.107 92.5766 106.397 96.3069 109.5C100.037 112.603 103.068 112.894 104.5 117.5C110.177 127.976 105.705 128.826 109 140.256C109.65 142.494 110.78 142.269 110.5 144.5C110.242 146.561 112.551 146.876 113 149C113.457 151.16 91.0378 140.706 92.2018 143C93.5349 145.627 101.127 162.929 101.5 165.699L93.4059 152.763L98.4999 163Z" fill="#FD6584"/>
<path d="M49.602 185.503C48.7754 185.447 48.0598 186.071 48.0034 186.898C47.9471 187.724 48.5714 188.44 49.3979 188.497L49.602 185.503ZM56.8349 187.5L56.9427 186.004L56.9369 186.003L56.8349 187.5ZM70.7184 188.5L70.8499 187.006L70.838 187.005L70.8261 187.004L70.7184 188.5ZM76.398 189L76.2665 190.494L76.2898 190.496L76.3132 190.498L76.398 189ZM85.2329 189.5L85.3318 188.003L85.3177 188.002L85.2329 189.5ZM92.8058 190L92.7069 191.497L92.7251 191.498L92.7433 191.499L92.8058 190ZM104.796 190.5L104.887 189.003L104.873 189.002L104.859 189.001L104.796 190.5ZM49.3979 188.497L56.7329 188.997L56.9369 186.003L49.602 185.503L49.3979 188.497ZM56.7271 188.996L70.6106 189.996L70.8261 187.004L56.9427 186.004L56.7271 188.996ZM70.5868 189.994L76.2665 190.494L76.5295 187.506L70.8499 187.006L70.5868 189.994ZM76.3132 190.498L85.1482 190.998L85.3177 188.002L76.4827 187.502L76.3132 190.498ZM85.1341 190.997L92.7069 191.497L92.9046 188.503L85.3318 188.003L85.1341 190.997ZM92.7433 191.499L104.734 191.999L104.859 189.001L92.8683 188.501L92.7433 191.499ZM104.705 191.997L112.909 192.497L113.091 189.503L104.887 189.003L104.705 191.997Z" fill="black"/>
<path d="M102.5 192.5L99.9999 190L98.4999 187.5L103.253 185L106.407 190.104L102.5 192.5Z" fill="url(#paint0_linear_105_446)"/>
<path d="M107.024 189.458C107.198 189.53 107.359 189.701 107.446 189.864C107.473 189.916 107.554 190.234 107.457 190.255C107.232 190.303 106.958 190.096 106.894 189.889C106.846 189.73 106.969 189.683 107.099 189.753C107.518 189.978 107.469 190.651 107.373 191.036C107.346 191.148 107.256 191.553 107.085 191.538C106.846 191.515 106.587 191.456 106.394 191.307C106.296 191.232 106.257 191.194 106.278 191.074C106.291 190.999 106.314 190.976 106.395 191.005C106.562 191.066 106.725 191.203 106.754 191.385C106.77 191.489 106.791 191.662 106.651 191.665C106.399 191.67 106.187 191.501 105.934 191.501C105.732 191.501 105.649 191.789 105.446 191.742C105.381 191.727 105.358 191.664 105.292 191.649C105.169 191.621 105.047 191.599 104.924 191.574C104.722 191.534 105.323 191.675 105.525 191.712C106.067 191.812 106.597 191.808 107.146 191.808C107.984 191.808 108.822 191.808 109.66 191.808C109.814 191.808 109.983 191.831 110.127 191.767C110.416 191.639 110.726 191.52 111.042 191.493C111.283 191.473 111.578 191.443 111.814 191.511C111.97 191.556 111.718 191.585 111.669 191.578C111.35 191.538 111.088 191.361 110.833 191.177C110.585 190.997 110.485 190.9 110.436 190.606C110.423 190.527 110.296 190.155 110.471 190.207C110.551 190.231 110.624 190.274 110.693 190.32C110.898 190.456 110.94 190.624 110.897 190.87C110.869 191.03 110.791 191.283 110.727 191.433C110.707 191.48 110.645 191.623 110.57 191.651C110.463 191.69 110.3 191.519 110.238 191.463C110.078 191.316 109.919 191.167 109.762 191.018C109.695 190.954 109.575 190.871 109.561 190.771C109.52 190.495 109.596 190.2 109.682 189.94C109.697 189.895 109.835 189.391 109.947 189.456C110.08 189.533 110.032 189.85 110.025 189.972C110.01 190.228 109.819 190.176 109.614 190.144C109.233 190.083 108.882 189.983 108.588 189.721C108.479 189.624 108.379 189.501 108.566 189.423C109.084 189.208 109.708 189.212 110.254 189.271C110.861 189.336 111.435 189.516 111.837 189.996C111.968 190.153 112.108 190.333 112.062 190.55C112.013 190.779 111.638 190.807 111.453 190.843C111.25 190.883 111.032 190.904 110.824 190.888C110.639 190.875 110.854 190.7 110.94 190.689C111.084 190.67 111.291 190.663 111.426 190.728C111.631 190.828 111.696 191.026 111.75 191.233C111.777 191.334 111.765 191.413 111.678 191.476C111.537 191.578 111.615 191.456 111.735 191.445C112.036 191.415 112.009 191.62 112.009 191.84C112.009 191.888 112.001 191.932 112.031 191.972C112.11 192.078 111.725 192.139 111.657 192.155C111.384 192.221 111.124 192.264 110.846 192.216C110.569 192.169 110.303 192.073 110.028 192.014C109.92 191.991 109.763 191.998 109.664 191.946C109.583 191.904 109.489 191.9 109.401 191.878C109.243 191.839 109.096 191.772 108.947 191.708C108.665 191.587 108.395 191.556 108.091 191.563C107.911 191.566 107.801 191.73 107.781 191.9C107.774 191.955 107.735 191.999 107.74 192.054C107.749 192.145 107.831 192.196 107.902 192.237" stroke="white" stroke-width="3" stroke-linecap="round"/>
<path d="M110.946 191.008C110.894 191.503 110.06 191.87 109.648 192.01C109.497 192.061 109.164 191.835 109.114 191.698C109.061 191.551 109.05 191.073 109.32 191.172C109.63 191.286 110.201 192.684 109.878 192.675C109.389 192.662 108.82 191.51 108.646 191.147C108.564 190.976 108.599 190.306 108.802 190.712C109.132 191.373 108.284 191.317 108.284 190.712" stroke="#FFB6B6" stroke-width="3" stroke-linecap="round"/>
<path d="M110.577 192.265C110.956 192.414 111.336 192.786 110.7 192.519C110.251 192.331 110.5 191.964 110.914 191.796C111.185 191.686 112.541 191.581 112.705 191.969C112.779 192.147 112.417 192.577 112.277 192.651C112.122 192.733 112.38 192.303 112.392 192.281C112.554 191.986 112.58 191.677 112.696 191.369C112.847 190.969 112.869 190.72 112.869 190.268C112.869 189.689 112.792 189.478 112.401 189.102C112.088 188.8 111.713 188.597 111.3 188.477C111.153 188.435 111.02 188.438 110.872 188.42C110.674 188.395 110.524 188.224 110.322 188.198C109.965 188.152 109.638 187.927 109.262 187.902C108.996 187.884 108.771 187.754 108.523 187.754C107.906 187.754 107.161 187.637 106.584 187.902C106.065 188.14 105.408 188.594 105.121 189.069C104.837 189.54 104.387 190.112 104.366 190.695C104.358 190.903 104.313 191.199 104.382 191.394C104.493 191.704 104.795 191.974 104.957 192.265C105.163 192.635 105.702 192.829 106.099 192.93C106.453 193.02 106.964 193.132 107.323 193.152C107.557 193.165 107.052 192.645 107.027 192.503C106.963 192.127 106.692 191.73 106.559 191.369C106.355 190.813 106.727 189.622 107.43 189.603C108.35 189.577 109.349 189.519 110.24 189.751C110.993 189.947 110.299 190.548 110.002 190.901C109.738 191.213 109.385 191.544 109.262 191.936C109.223 192.061 108.777 192.614 108.654 192.634C108.463 192.666 108.357 192.782 108.137 192.782" stroke="#FFB6B6" stroke-width="3" stroke-linecap="round"/>
<path d="M84.9266 153.855C84.7778 153.895 84.6575 153.88 84.528 153.79C84.3883 153.693 84.3732 153.666 84.4108 153.866C84.6291 155.027 84.5046 158.591 84.5046 157.41C84.5046 156.858 84.4452 156.275 84.5339 155.73C84.5404 155.691 84.6193 155.215 84.7127 155.379C84.7972 155.527 84.7776 155.781 84.8211 155.912" stroke="#FFB6B6" stroke-width="3" stroke-linecap="round"/>
<path d="M84.6101 153.485C84.8407 153.67 84.8486 153.963 84.9032 154.239C84.974 154.596 85.0363 154.955 85.167 155.297C85.2123 155.415 85.1895 155.259 85.1963 155.215C85.2528 154.847 85.5251 154.716 85.8763 154.716C86.5114 154.716 87.1503 154.931 87.4648 155.525C88.0057 156.548 88.0372 157.99 87.7344 159.089C87.715 159.16 87.6054 159.666 87.4355 159.576C87.0128 159.35 86.6263 158.872 86.2895 158.535C85.7477 157.993 85.8235 157.274 85.8235 156.563C85.8235 156.368 85.8235 156.952 85.8235 157.146C85.8235 157.349 85.8471 157.618 85.6125 157.383C85.293 157.064 85.3779 156.651 85.5363 156.252C85.6765 155.899 85.7697 156.527 85.8001 156.639C85.8795 156.931 86.2882 158.291 85.9173 158.503C85.7173 158.617 85.145 157.919 85.1377 157.747C85.1234 157.409 85.1892 157.059 85.2403 156.727C85.2894 156.408 85.296 156.216 85.296 156.654C85.296 156.978 85.3104 157.306 85.296 157.63C85.2905 157.751 85.1972 157.686 85.167 157.618C85.0945 157.455 85.0017 157.285 84.9853 157.105C84.9713 156.951 85.1425 155.734 85.4454 156.056C85.6029 156.223 85.6521 156.681 85.674 156.841C85.7555 157.436 85.7751 158.045 85.7356 158.644C85.7109 159.017 85.7642 159.681 85.2666 159.341C84.7091 158.961 84.2662 158.407 83.7866 157.937C83.3102 157.471 83.0833 157.116 83.0949 156.431C83.1054 155.811 83.3169 155.239 83.684 154.74C83.8614 154.498 84.015 154.484 84.1471 154.763C84.392 155.281 84.4987 155.884 84.6512 156.434C84.7145 156.662 84.9351 157.293 84.7567 157.137C84.5616 156.966 84.3917 156.77 84.2526 156.551C84.0998 156.311 83.8324 155.979 83.7778 155.692C83.7109 155.341 83.8736 154.957 84.024 154.652C84.4059 153.877 84.8837 153.143 85.5187 152.553C85.6037 152.474 85.823 152.186 85.9642 152.328C86.1236 152.487 86.2032 152.758 86.2807 152.958C86.4406 153.371 86.5943 153.789 86.7262 154.212C86.8313 154.549 86.9523 154.967 86.8024 155.314C86.7016 155.548 86.2887 155.643 86.0638 155.678C83.8358 156.016 82.6882 153.17 82.3124 151.469C82.0579 150.317 83.3218 150.574 83.8071 151.211C84.388 151.973 84.6426 152.961 85.1025 153.793C85.1092 153.805 85.2113 154.108 85.167 154.071C85.0052 153.937 84.9333 153.687 84.8974 153.491C84.8533 153.251 84.8361 152.909 84.9677 152.694C85.1505 152.396 85.5508 152.231 85.847 152.09C86.2553 151.896 86.6785 151.723 87.1014 151.563C87.1605 151.54 87.4296 151.407 87.4882 151.528C87.5919 151.741 87.5117 152.144 87.5117 152.372C87.5117 152.67 87.5273 152.941 87.3358 153.192C87.1504 153.435 86.8234 153.867 86.524 153.972C85.8993 154.19 84.9811 153.768 84.5574 153.315C84.2562 152.994 84.0871 152.782 84.2936 152.354C84.4471 152.036 84.6353 152.09 84.9267 152.219" stroke="#FD6584" stroke-width="3" stroke-linecap="round"/>
<path d="M51.3932 185.283C51.3506 185.354 51.2584 185.377 51.1874 185.334C51.1164 185.292 51.0934 185.2 51.136 185.129C51.1786 185.058 51.2708 185.035 51.3418 185.077C51.4128 185.12 51.4359 185.212 51.3932 185.283Z" fill="white"/>
<g filter="url(#filter0_d_105_446)">
<path d="M51.2133 185L50.8691 189.459" stroke="#D8D8D8" stroke-linecap="round"/>
</g>
<path d="M50.9976 189.691C50.9549 189.762 50.8628 189.785 50.7918 189.742C50.7207 189.699 50.6977 189.607 50.7404 189.536C50.783 189.465 50.8751 189.442 50.9462 189.485C51.0172 189.527 51.0402 189.62 50.9976 189.691Z" fill="white"/>
<path d="M51.3344 185.283C51.2917 185.354 51.1996 185.377 51.1286 185.334C51.0575 185.292 51.0345 185.2 51.0772 185.129C51.1198 185.058 51.212 185.035 51.283 185.077C51.354 185.12 51.377 185.212 51.3344 185.283Z" fill="white"/>
<path d="M63.3932 186.283C63.3506 186.354 63.2584 186.377 63.1874 186.334C63.1164 186.292 63.0934 186.2 63.136 186.129C63.1786 186.058 63.2708 186.035 63.3418 186.077C63.4128 186.12 63.4359 186.212 63.3932 186.283Z" fill="white"/>
<g filter="url(#filter1_d_105_446)">
<path d="M63.2133 186L62.8691 190.459" stroke="#D8D8D8" stroke-linecap="round"/>
</g>
<path d="M62.9976 190.742C62.955 190.813 62.8629 190.836 62.7918 190.793C62.7208 190.751 62.6978 190.658 62.7404 190.587C62.7831 190.516 62.8752 190.493 62.9462 190.536C63.0173 190.579 63.0403 190.671 62.9976 190.742Z" fill="white"/>
<path d="M63.3344 186.129C63.2917 186.2 63.1996 186.223 63.1285 186.18C63.0575 186.137 63.0345 186.045 63.0771 185.974C63.1198 185.903 63.2119 185.88 63.283 185.923C63.354 185.965 63.377 186.058 63.3344 186.129Z" fill="white"/>
<path d="M75.3691 187.427C75.3296 187.5 75.2385 187.527 75.1657 187.487C75.0929 187.448 75.0659 187.356 75.1054 187.284C75.1449 187.211 75.2359 187.184 75.3088 187.223C75.3816 187.263 75.4086 187.354 75.3691 187.427Z" fill="white"/>
<g filter="url(#filter2_d_105_446)">
<path d="M75.1769 187.152L75.0279 191.621" stroke="#D8D8D8" stroke-linecap="round"/>
</g>
<path d="M75.1687 191.899C75.1292 191.971 75.0382 191.998 74.9653 191.959C74.8925 191.919 74.8655 191.828 74.905 191.756C74.9445 191.683 75.0355 191.656 75.1084 191.695C75.1812 191.735 75.2082 191.826 75.1687 191.899Z" fill="white"/>
<path d="M75.3036 187.275C75.2641 187.348 75.173 187.375 75.1002 187.335C75.0274 187.296 75.0004 187.205 75.0399 187.132C75.0794 187.059 75.1704 187.032 75.2432 187.072C75.3161 187.111 75.3431 187.202 75.3036 187.275Z" fill="white"/>
<g filter="url(#filter3_d_105_446)">
<path d="M87.0278 187.143L86.7629 191.555" stroke="#D8D8D8" stroke-linecap="round"/>
</g>
<path d="M86.8896 191.825C86.8499 191.898 86.7623 191.927 86.694 191.89C86.6256 191.852 86.6023 191.763 86.642 191.69C86.6817 191.618 86.7692 191.589 86.8376 191.626C86.906 191.664 86.9293 191.753 86.8896 191.825Z" fill="white"/>
<path d="M87.1452 187.262C87.1055 187.335 87.0179 187.363 86.9495 187.326C86.8812 187.289 86.8579 187.2 86.8976 187.127C86.9373 187.054 87.0248 187.025 87.0932 187.063C87.1616 187.1 87.1849 187.189 87.1452 187.262Z" fill="white"/>
<g filter="url(#filter4_d_105_446)">
<path d="M98.0851 188.139L98.1045 192.559" stroke="#D8D8D8" stroke-linecap="round"/>
</g>
<path d="M98.2482 192.821C98.2133 192.896 98.1278 192.93 98.0571 192.897C97.9865 192.864 97.9575 192.777 97.9925 192.702C98.0274 192.627 98.1129 192.592 98.1836 192.625C98.2542 192.658 98.2832 192.745 98.2482 192.821Z" fill="white"/>
<path d="M98.21 188.25C98.175 188.325 98.0895 188.359 98.0188 188.327C97.9482 188.294 97.9193 188.206 97.9542 188.131C97.9891 188.056 98.0747 188.022 98.1453 188.055C98.2159 188.087 98.2449 188.175 98.21 188.25Z" fill="white"/>
<path d="M96.6968 364.2L103.6 364.007L105.016 358.151L107.988 363.884L126.297 363.37C127.174 363.346 128.037 363.072 128.759 362.587C129.48 362.103 130.023 361.434 130.308 360.679C130.592 359.923 130.604 359.12 130.341 358.387C130.079 357.654 129.555 357.03 128.847 356.605L114.51 347.996L114.696 342.112L99.2914 343.363L96.6968 364.2Z" fill="black"/>
<path d="M64.0431 359.453L70.4896 359.479L71.6602 353.402L74.5873 359.496L91.685 359.565C92.5046 359.569 93.3036 359.31 93.9653 358.827C94.627 358.345 95.1169 357.663 95.3634 356.883C95.6098 356.102 95.6 355.262 95.3353 354.487C95.0706 353.712 94.5649 353.041 93.892 352.573L80.2693 343.096L80.2895 336.947L65.9253 337.746L64.0431 359.453Z" fill="black"/>
<defs>
<filter id="filter0_d_105_446" x="0.369141" y="138.5" width="101.344" height="105.459" filterUnits="userSpaceOnUse" color-interpolation-filters="sRGB">
<feFlood flood-opacity="0" result="BackgroundImageFix"/>
<feColorMatrix in="SourceAlpha" type="matrix" values="0 0 0 0 0 0 0 0 0 0 0 0 0 0 0 0 0 0 127 0" result="hardAlpha"/>
<feOffset dy="4"/>
<feGaussianBlur stdDeviation="25"/>
<feComposite in2="hardAlpha" operator="out"/>
<feColorMatrix type="matrix" values="0 0 0 0 0.247059 0 0 0 0 0.239216 0 0 0 0 0.337255 0 0 0 1 0"/>
<feBlend mode="normal" in2="BackgroundImageFix" result="effect1_dropShadow_105_446"/>
<feBlend mode="normal" in="SourceGraphic" in2="effect1_dropShadow_105_446" result="shape"/>
</filter>
<filter id="filter1_d_105_446" x="12.3691" y="139.5" width="101.344" height="105.459" filterUnits="userSpaceOnUse" color-interpolation-filters="sRGB">
<feFlood flood-opacity="0" result="BackgroundImageFix"/>
<feColorMatrix in="SourceAlpha" type="matrix" values="0 0 0 0 0 0 0 0 0 0 0 0 0 0 0 0 0 0 127 0" result="hardAlpha"/>
<feOffset dy="4"/>
<feGaussianBlur stdDeviation="25"/>
<feComposite in2="hardAlpha" operator="out"/>
<feColorMatrix type="matrix" values="0 0 0 0 0.247059 0 0 0 0 0.239216 0 0 0 0 0.337255 0 0 0 1 0"/>
<feBlend mode="normal" in2="BackgroundImageFix" result="effect1_dropShadow_105_446"/>
<feBlend mode="normal" in="SourceGraphic" in2="effect1_dropShadow_105_446" result="shape"/>
</filter>
<filter id="filter2_d_105_446" x="24.528" y="140.652" width="101.149" height="105.47" filterUnits="userSpaceOnUse" color-interpolation-filters="sRGB">
<feFlood flood-opacity="0" result="BackgroundImageFix"/>
<feColorMatrix in="SourceAlpha" type="matrix" values="0 0 0 0 0 0 0 0 0 0 0 0 0 0 0 0 0 0 127 0" result="hardAlpha"/>
<feOffset dy="4"/>
<feGaussianBlur stdDeviation="25"/>
<feComposite in2="hardAlpha" operator="out"/>
<feColorMatrix type="matrix" values="0 0 0 0 0.247059 0 0 0 0 0.239216 0 0 0 0 0.337255 0 0 0 1 0"/>
<feBlend mode="normal" in2="BackgroundImageFix" result="effect1_dropShadow_105_446"/>
<feBlend mode="normal" in="SourceGraphic" in2="effect1_dropShadow_105_446" result="shape"/>
</filter>
<filter id="filter3_d_105_446" x="36.262" y="140.644" width="101.267" height="105.41" filterUnits="userSpaceOnUse" color-interpolation-filters="sRGB">
<feFlood flood-opacity="0" result="BackgroundImageFix"/>
<feColorMatrix in="SourceAlpha" type="matrix" values="0 0 0 0 0 0 0 0 0 0 0 0 0 0 0 0 0 0 127 0" result="hardAlpha"/>
<feOffset dy="4"/>
<feGaussianBlur stdDeviation="25"/>
<feComposite in2="hardAlpha" operator="out"/>
<feColorMatrix type="matrix" values="0 0 0 0 0.247059 0 0 0 0 0.239216 0 0 0 0 0.337255 0 0 0 1 0"/>
<feBlend mode="normal" in2="BackgroundImageFix" result="effect1_dropShadow_105_446"/>
<feBlend mode="normal" in="SourceGraphic" in2="effect1_dropShadow_105_446" result="shape"/>
</filter>
<filter id="filter4_d_105_446" x="47.5859" y="141.638" width="101.018" height="105.421" filterUnits="userSpaceOnUse" color-interpolation-filters="sRGB">
<feFlood flood-opacity="0" result="BackgroundImageFix"/>
<feColorMatrix in="SourceAlpha" type="matrix" values="0 0 0 0 0 0 0 0 0 0 0 0 0 0 0 0 0 0 127 0" result="hardAlpha"/>
<feOffset dy="4"/>
<feGaussianBlur stdDeviation="25"/>
<feComposite in2="hardAlpha" operator="out"/>
<feColorMatrix type="matrix" values="0 0 0 0 0.247059 0 0 0 0 0.239216 0 0 0 0 0.337255 0 0 0 1 0"/>
<feBlend mode="normal" in2="BackgroundImageFix" result="effect1_dropShadow_105_446"/>
<feBlend mode="normal" in="SourceGraphic" in2="effect1_dropShadow_105_446" result="shape"/>
</filter>
<linearGradient id="paint0_linear_105_446" x1="101" y1="186.5" x2="103.5" y2="190.5" gradientUnits="userSpaceOnUse">
<stop offset="0.477889" stop-color="#FD6584"/>
<stop offset="0.478384" stop-color="#FFB6B6"/>
</linearGradient>
</defs>
</svg>
