<svg width="308" height="483" viewBox="0 0 308 483" fill="none" xmlns="http://www.w3.org/2000/svg">
<path d="M285.525 114.779V115.279H286.025H288.5L288.5 166.029H286.025H285.525V166.529V440.923C285.525 451.93 280.623 462.5 271.875 470.303C263.126 478.107 251.247 482.5 238.852 482.5H66.1727C53.7771 482.5 41.899 478.107 33.1494 470.303C24.4017 462.5 19.5 451.93 19.5 440.922V42.0774C19.5 31.07 24.4017 20.5001 33.1495 12.6973C41.8991 4.89276 53.7772 0.499979 66.1729 0.5H238.852C251.248 0.500012 263.126 4.89283 271.875 12.6974C280.623 20.5003 285.525 31.0702 285.525 42.0776V114.779Z" fill="white" stroke="black"/>
<path d="M75.7458 392.425L75.7466 392.424C78.0939 390.066 80.9506 388.277 84.0972 387.195C87.2439 386.112 90.5967 385.766 93.8981 386.182C97.1996 386.598 100.362 387.765 103.142 389.594C105.866 391.385 108.152 393.766 109.832 396.558C104.197 400.063 97.7122 401.973 91.0709 402.079C84.4307 402.184 77.8898 400.482 72.1469 397.159C73.127 395.427 74.3375 393.834 75.7458 392.425Z" fill="#A48AE6" stroke="black"/>
<path d="M107.284 358.369C107.284 368.267 99.2596 376.292 89.361 376.292C79.4624 376.292 71.438 368.267 71.438 358.369C71.438 348.47 79.4624 340.446 89.361 340.446C99.2596 340.446 107.284 348.47 107.284 358.369Z" fill="#060606" stroke="black"/>
<path d="M97.375 353.194C103.778 356.693 106.131 364.721 102.631 371.123C99.1307 377.526 91.1032 379.879 84.7007 376.379C78.2982 372.879 75.9452 364.852 79.4451 358.449C82.9451 352.047 90.9725 349.694 97.375 353.194Z" fill="#FFB6B6" stroke="black"/>
<path d="M98.0193 360.915C93.7235 361.786 89.3131 361.888 84.9923 361.222C85.9021 360.878 86.769 360.424 87.5728 359.866L88.8958 358.949L87.2859 358.955C84.1327 358.968 81.0404 358.159 78.309 356.621C77.8327 355.344 78.1795 353.716 79.1147 352.56C80.2386 351.17 82.0013 350.383 83.8467 349.906C86.6609 349.201 89.5966 349.13 92.4416 349.699C95.2865 350.267 97.9696 351.461 100.297 353.193C101.047 353.761 101.763 354.451 102.248 355.209C102.729 355.962 102.965 356.75 102.829 357.548C102.717 358.032 102.506 358.488 102.209 358.885C101.909 359.286 101.529 359.619 101.092 359.863C100.142 360.385 99.1095 360.74 98.0395 360.911L98.0294 360.913L98.0193 360.915Z" fill="#060606" stroke="black"/>
<mask id="path-6-inside-1_105_496" fill="white">
<path d="M90.4884 403C81.4658 402.997 72.7467 399.741 65.9304 393.83C59.1142 387.918 54.6578 379.747 53.3788 370.816C52.0998 361.884 54.0838 352.791 58.967 345.204C63.8502 337.617 71.3052 332.045 79.9644 329.51C88.6236 326.976 97.9064 327.648 106.11 331.403C114.314 335.159 120.888 341.747 124.628 349.958C128.367 358.17 129.021 367.454 126.468 376.108C123.916 384.762 118.329 392.206 110.732 397.074C104.691 400.947 97.6648 403.004 90.4884 403ZM90.4884 328.81C83.2332 328.81 76.1407 330.96 70.1079 334.991C64.0752 339.021 59.3731 344.75 56.5963 351.453C53.8195 358.156 53.0928 365.531 54.5081 372.647C55.9234 379.763 59.417 386.299 64.5472 391.43C69.6774 396.56 76.2137 400.053 83.3296 401.469C90.4454 402.884 97.8211 402.157 104.524 399.38C111.227 396.604 116.956 391.902 120.986 385.869C125.016 379.836 127.167 372.744 127.166 365.488C127.155 355.764 123.288 346.441 116.412 339.565C109.535 332.689 100.213 328.821 90.4884 328.81Z"/>
</mask>
<path d="M90.4884 403C81.4658 402.997 72.7467 399.741 65.9304 393.83C59.1142 387.918 54.6578 379.747 53.3788 370.816C52.0998 361.884 54.0838 352.791 58.967 345.204C63.8502 337.617 71.3052 332.045 79.9644 329.51C88.6236 326.976 97.9064 327.648 106.11 331.403C114.314 335.159 120.888 341.747 124.628 349.958C128.367 358.17 129.021 367.454 126.468 376.108C123.916 384.762 118.329 392.206 110.732 397.074C104.691 400.947 97.6648 403.004 90.4884 403ZM90.4884 328.81C83.2332 328.81 76.1407 330.96 70.1079 334.991C64.0752 339.021 59.3731 344.75 56.5963 351.453C53.8195 358.156 53.0928 365.531 54.5081 372.647C55.9234 379.763 59.417 386.299 64.5472 391.43C69.6774 396.56 76.2137 400.053 83.3296 401.469C90.4454 402.884 97.8211 402.157 104.524 399.38C111.227 396.604 116.956 391.902 120.986 385.869C125.016 379.836 127.167 372.744 127.166 365.488C127.155 355.764 123.288 346.441 116.412 339.565C109.535 332.689 100.213 328.821 90.4884 328.81Z" fill="white"/>
<path d="M90.4884 403L90.489 402H90.4887L90.4884 403ZM110.732 397.074L110.193 396.232L110.193 396.232L110.732 397.074ZM90.4884 328.81L90.4895 327.81L90.4885 327.81L90.4884 328.81ZM127.166 365.488L128.166 365.488V365.487L127.166 365.488ZM90.4887 402C81.7067 401.997 73.2201 398.828 66.5856 393.074L65.2752 394.585C72.2733 400.655 81.2249 403.997 90.4881 404L90.4887 402ZM66.5856 393.074C59.9511 387.321 55.6136 379.368 54.3687 370.674L52.3889 370.958C53.702 380.127 58.2772 388.516 65.2752 394.585L66.5856 393.074ZM54.3687 370.674C53.1238 361.981 55.0549 353.13 59.8079 345.746L58.1261 344.663C53.1127 352.452 51.0758 361.788 52.3889 370.958L54.3687 370.674ZM59.8079 345.746C64.5609 338.361 71.817 332.937 80.2453 330.47L79.6834 328.551C70.7933 331.153 63.1396 336.874 58.1261 344.663L59.8079 345.746ZM80.2453 330.47C88.6736 328.003 97.7089 328.657 105.694 332.313L106.526 330.494C98.1039 326.638 88.5735 325.948 79.6834 328.551L80.2453 330.47ZM105.694 332.313C113.679 335.968 120.078 342.38 123.718 350.373L125.538 349.544C121.699 341.114 114.949 334.35 106.526 330.494L105.694 332.313ZM123.718 350.373C127.357 358.365 127.993 367.402 125.509 375.825L127.428 376.391C130.048 367.506 129.377 357.974 125.538 349.544L123.718 350.373ZM125.509 375.825C123.025 384.248 117.587 391.494 110.193 396.232L111.272 397.916C119.071 392.918 124.807 385.276 127.428 376.391L125.509 375.825ZM110.193 396.232C104.313 400.002 97.4738 402.004 90.489 402L90.4878 404C97.8557 404.005 105.07 401.893 111.272 397.915L110.193 396.232ZM90.4885 327.81C83.0355 327.81 75.7497 330.019 69.5524 334.159L70.6635 335.822C76.5318 331.902 83.4309 329.81 90.4883 329.81L90.4885 327.81ZM69.5524 334.159C63.3552 338.3 58.5249 344.185 55.6725 351.07L57.5202 351.836C60.2212 345.315 64.7951 339.743 70.6635 335.822L69.5524 334.159ZM55.6725 351.07C52.82 357.956 52.0735 365.532 53.5273 372.842L55.4889 372.452C54.1122 365.53 54.8191 358.356 57.5202 351.836L55.6725 351.07ZM53.5273 372.842C54.9811 380.152 58.57 386.867 63.8401 392.137L65.2543 390.722C60.264 385.732 56.8656 379.374 55.4889 372.452L53.5273 372.842ZM63.8401 392.137C69.1102 397.407 75.8247 400.996 83.1345 402.449L83.5246 400.488C76.6028 399.111 70.2447 395.713 65.2543 390.722L63.8401 392.137ZM83.1345 402.449C90.4443 403.903 98.0211 403.157 104.907 400.304L104.141 398.457C97.6211 401.158 90.4465 401.865 83.5246 400.488L83.1345 402.449ZM104.907 400.304C111.792 397.452 117.677 392.622 121.817 386.424L120.154 385.313C116.234 391.182 110.661 395.756 104.141 398.457L104.907 400.304ZM121.817 386.424C125.958 380.227 128.167 372.941 128.166 365.488L126.166 365.488C126.167 372.546 124.075 379.445 120.154 385.313L121.817 386.424ZM128.166 365.487C128.155 355.498 124.182 345.921 117.119 338.858L115.704 340.272C122.393 346.961 126.156 356.03 126.166 365.489L128.166 365.487ZM117.119 338.858C110.055 331.795 100.479 327.822 90.4895 327.81L90.4873 329.81C99.9467 329.821 109.016 333.583 115.704 340.272L117.119 338.858Z" fill="black" mask="url(#path-6-inside-1_105_496)"/>
<path d="M231.065 219.58C231.164 219.715 231.26 219.853 231.356 219.993C230.855 220.246 230.347 220.489 229.833 220.721C229.225 220.996 228.607 221.254 227.979 221.496C227.75 221.583 227.517 221.671 227.283 221.758M231.065 219.58C231.216 219.504 231.366 219.427 231.515 219.349C231.449 219.257 231.381 219.166 231.312 219.075C230.669 218.212 229.964 217.396 229.204 216.633C227.014 214.432 224.385 212.717 221.489 211.6C218.592 210.483 215.492 209.989 212.391 210.151C209.291 210.312 206.259 211.125 203.494 212.536C200.728 213.947 198.291 215.925 196.342 218.342C196.27 218.428 196.199 218.515 196.129 218.603C196.275 218.689 196.421 218.774 196.567 218.856M231.065 219.58C230.592 219.818 230.113 220.046 229.628 220.265L229.627 220.265C229.028 220.536 228.419 220.791 227.8 221.029M231.065 219.58C231.015 219.512 230.965 219.444 230.914 219.377L230.912 219.374C230.282 218.53 229.593 217.732 228.85 216.986L228.85 216.986C226.709 214.835 224.14 213.159 221.309 212.067C218.477 210.975 215.448 210.492 212.417 210.65C209.387 210.808 206.424 211.602 203.721 212.981C201.018 214.361 198.636 216.294 196.731 218.656L196.727 218.66L196.727 218.66C196.673 218.726 196.62 218.791 196.567 218.856M196.567 218.856C196.46 218.99 196.357 219.123 196.259 219.257C196.453 219.367 196.648 219.474 196.846 219.579M196.567 218.856C196.736 218.952 196.906 219.045 197.078 219.136M196.846 219.579C196.923 219.619 197.001 219.66 197.079 219.701C197.235 219.782 197.39 219.864 197.546 219.942C200.149 221.27 202.9 222.286 205.742 222.967C206.329 223.108 206.916 223.238 207.517 223.346C209.819 223.782 212.157 224.001 214.5 224C215.092 224 215.679 223.988 216.267 223.958C217.092 223.919 217.908 223.854 218.717 223.763C219.696 223.656 220.662 223.508 221.617 223.321C223.544 222.95 225.438 222.427 227.283 221.758M196.846 219.579L197.076 219.135C197.076 219.136 197.077 219.136 197.078 219.136M196.846 219.579L197.08 219.137C197.079 219.137 197.078 219.137 197.078 219.136M227.283 221.758L227.113 221.288C227.112 221.289 227.111 221.289 227.11 221.289M227.283 221.758L227.108 221.29C227.109 221.29 227.109 221.29 227.11 221.289M227.11 221.289C225.291 221.949 223.422 222.464 221.522 222.83L221.52 222.83C220.58 223.015 219.628 223.16 218.662 223.265L218.66 223.266C217.863 223.356 217.057 223.421 216.243 223.459L216.242 223.459C215.664 223.488 215.084 223.5 214.5 223.5H214.5C212.188 223.501 209.881 223.285 207.61 222.855L207.61 222.855L207.605 222.854C207.017 222.748 206.44 222.621 205.859 222.481L205.858 222.48C203.055 221.809 200.341 220.807 197.773 219.496L197.773 219.496L197.769 219.494C197.618 219.419 197.47 219.341 197.317 219.261C197.239 219.22 197.159 219.179 197.078 219.136M227.11 221.289C227.343 221.202 227.574 221.115 227.8 221.029M227.8 221.029C227.8 221.029 227.8 221.029 227.799 221.029L227.979 221.496L227.801 221.029C227.801 221.029 227.801 221.029 227.8 221.029Z" fill="#FD6584" stroke="black"/>
<path d="M233.127 183.164C233.127 192.992 225.16 200.959 215.332 200.959C205.503 200.959 197.536 192.992 197.536 183.164C197.536 173.335 205.503 165.368 215.332 165.368C225.16 165.368 233.127 173.335 233.127 183.164Z" fill="#060606" stroke="black"/>
<path d="M225.176 183.245C228.651 189.602 226.314 197.572 219.958 201.047C213.601 204.521 205.631 202.185 202.157 195.829C198.682 189.472 201.018 181.502 207.374 178.027C213.731 174.553 221.701 176.889 225.176 183.245Z" fill="#FFB6B6" stroke="black"/>
<path d="M225.504 177.397C226.432 178.545 226.776 180.159 226.304 181.426C223.593 182.952 220.523 183.755 217.392 183.743L215.782 183.736L217.105 184.654C217.9 185.205 218.757 185.655 219.657 185.996C215.37 186.655 210.995 186.553 206.734 185.689L206.724 185.687L206.714 185.686C205.651 185.515 204.626 185.163 203.684 184.645C203.25 184.403 202.873 184.072 202.576 183.675C202.28 183.28 202.071 182.828 201.961 182.348C201.826 181.556 202.059 180.775 202.537 180.028C203.018 179.275 203.728 178.59 204.474 178.027C206.784 176.307 209.448 175.121 212.273 174.557C215.098 173.992 218.013 174.063 220.807 174.763C222.639 175.237 224.389 176.018 225.504 177.397Z" fill="#060606" stroke="black"/>
<path d="M207.681 222.868C209.929 223.289 212.212 223.501 214.5 223.5H214.5L207.681 222.868ZM207.681 222.868L207.742 222.537M207.681 222.868L207.742 222.537M207.742 222.537C206.386 222.287 205.047 221.959 203.729 221.554C201.722 220.934 199.772 220.144 197.9 219.192L197.899 219.191C197.682 219.079 197.466 218.966 197.254 218.85M207.742 222.537L195.284 217.717C195.413 217.796 195.542 217.875 195.671 217.95C195.892 218.083 196.117 218.217 196.342 218.342C196.642 218.521 196.95 218.688 197.254 218.85M197.254 218.85L197.093 219.144L207.679 222.868C207.656 222.863 207.633 222.859 207.61 222.855L207.606 222.854C207.018 222.748 206.44 222.621 205.859 222.481L205.858 222.48C205.109 222.301 204.367 222.098 203.631 221.872C203.631 221.872 203.631 221.872 203.631 221.872C201.615 221.251 199.655 220.457 197.773 219.496L197.769 219.494C197.763 219.491 197.757 219.488 197.751 219.485C197.75 219.485 197.749 219.484 197.748 219.484C197.604 219.411 197.463 219.337 197.317 219.261C197.245 219.223 197.171 219.185 197.096 219.146L197.254 218.85Z" fill="white" stroke="black"/>
<path d="M205.569 165.168L206.219 165.234C206.485 166.76 206.641 168.251 206.355 169.696C205.99 171.545 204.73 173.242 203.033 173.604C201.549 173.92 199.9 173.142 198.99 171.838C198.553 171.155 198.255 170.392 198.112 169.593C197.969 168.791 197.985 167.968 198.161 167.173L198.161 167.173L198.163 167.16C198.535 165.228 199.752 163.43 201.501 162.878C202.347 162.612 203.335 162.747 204.137 163.188C204.938 163.629 205.49 164.337 205.569 165.168Z" fill="#060606" stroke="black"/>
<path d="M233.478 168.125L234.128 168.191C234.394 169.717 234.55 171.208 234.264 172.653C233.899 174.502 232.64 176.199 230.942 176.561C229.458 176.877 227.809 176.099 226.899 174.796C226.462 174.112 226.164 173.349 226.021 172.55C225.878 171.748 225.894 170.926 226.07 170.13L226.07 170.13L226.072 170.117C226.445 168.186 227.661 166.387 229.41 165.835C230.256 165.569 231.245 165.704 232.047 166.145C232.847 166.586 233.399 167.294 233.478 168.125Z" fill="#060606" stroke="black"/>
<path d="M135.736 323.978C135.483 323.978 135.234 323.923 135.003 323.818C134.772 323.713 134.565 323.559 134.395 323.367L114.264 300.784C114.035 300.528 113.758 300.324 113.449 300.184C113.14 300.044 112.806 299.972 112.468 299.972H6.08906C4.4747 299.97 2.92697 299.31 1.78544 298.136C0.643917 296.962 0.00181252 295.37 0 293.71V254.261C0.00181145 252.601 0.643917 251.01 1.78544 249.836C2.92697 248.662 4.4747 248.002 6.08906 248H143.911C145.525 248.002 147.073 248.662 148.215 249.836C149.356 251.01 149.998 252.601 150 254.261V293.71C149.998 295.37 149.356 296.962 148.215 298.136C147.073 299.31 145.525 299.97 143.911 299.972H140.004C139.358 299.972 138.739 300.237 138.282 300.706C137.825 301.176 137.568 301.813 137.568 302.477V322.098C137.569 322.476 137.459 322.847 137.251 323.159C137.043 323.472 136.747 323.712 136.403 323.848C136.191 323.934 135.964 323.978 135.736 323.978Z" fill="white"/>
<path d="M135.736 323.978C135.483 323.978 135.234 323.923 135.003 323.818C134.772 323.713 134.565 323.559 134.395 323.367L114.264 300.784C114.035 300.528 113.758 300.324 113.449 300.184C113.14 300.044 112.806 299.972 112.468 299.972H6.08906C4.4747 299.97 2.92697 299.31 1.78544 298.136C0.643917 296.962 0.00181252 295.37 0 293.71V254.261C0.00181145 252.601 0.643917 251.01 1.78544 249.836C2.92697 248.662 4.4747 248.002 6.08906 248H143.911C145.525 248.002 147.073 248.662 148.215 249.836C149.356 251.01 149.998 252.601 150 254.261V293.71C149.998 295.37 149.356 296.962 148.215 298.136C147.073 299.31 145.525 299.97 143.911 299.972H140.004C139.358 299.972 138.739 300.237 138.282 300.706C137.825 301.176 137.568 301.813 137.568 302.477V322.098C137.569 322.476 137.459 322.847 137.251 323.159C137.043 323.472 136.747 323.712 136.403 323.848C136.191 323.934 135.964 323.978 135.736 323.978ZM6.08906 248.834C4.68981 248.836 3.34833 249.408 2.35891 250.426C1.3695 251.443 0.812952 252.823 0.811373 254.261V293.71C0.812954 295.149 1.3695 296.529 2.35892 297.546C3.34833 298.563 4.68982 299.136 6.08906 299.137H112.468C112.918 299.138 113.363 299.234 113.775 299.421C114.187 299.607 114.557 299.879 114.862 300.22L134.993 322.803C135.131 322.958 135.311 323.067 135.511 323.114C135.71 323.162 135.918 323.147 136.109 323.071C136.3 322.994 136.463 322.861 136.579 322.687C136.694 322.513 136.756 322.308 136.756 322.098V302.477C136.757 301.591 137.1 300.743 137.708 300.117C138.317 299.49 139.143 299.138 140.004 299.137H143.911C145.31 299.136 146.652 298.563 147.641 297.546C148.63 296.529 149.187 295.149 149.189 293.71V254.261C149.187 252.823 148.63 251.443 147.641 250.426C146.652 249.408 145.31 248.836 143.911 248.834H6.08906Z" fill="#3F3D56"/>
<path d="M14.9357 265.402C17.8784 265.402 20.2639 262.949 20.2639 259.923C20.2639 256.897 17.8784 254.444 14.9357 254.444C11.993 254.444 9.60754 256.897 9.60754 259.923C9.60754 262.949 11.993 265.402 14.9357 265.402Z" fill="#A48AE6"/>
<path d="M137.695 290.24H12.3053C11.9318 290.241 11.5619 290.165 11.2168 290.019C10.8716 289.872 10.558 289.657 10.2937 289.386C10.0295 289.114 9.81986 288.792 9.67684 288.437C9.53382 288.082 9.46021 287.702 9.46021 287.318C9.46021 286.934 9.53382 286.554 9.67684 286.199C9.81986 285.844 10.0295 285.522 10.2937 285.251C10.558 284.979 10.8716 284.764 11.2168 284.617C11.5619 284.471 11.9318 284.395 12.3053 284.396H137.695C138.448 284.397 139.17 284.705 139.702 285.253C140.234 285.801 140.533 286.544 140.533 287.318C140.533 288.092 140.234 288.835 139.702 289.383C139.17 289.931 138.448 290.239 137.695 290.24Z" fill="#E6E6E6"/>
<path d="M96.8455 277.821H12.3053C11.9318 277.822 11.5619 277.746 11.2168 277.6C10.8716 277.453 10.558 277.238 10.2937 276.966C10.0295 276.695 9.81986 276.373 9.67684 276.018C9.53382 275.663 9.46021 275.283 9.46021 274.899C9.46021 274.515 9.53382 274.135 9.67684 273.78C9.81986 273.425 10.0295 273.103 10.2937 272.831C10.558 272.56 10.8716 272.345 11.2168 272.198C11.5619 272.052 11.9318 271.976 12.3053 271.977H96.8455C97.5992 271.977 98.322 272.285 98.8549 272.833C99.3878 273.381 99.6872 274.124 99.6872 274.899C99.6872 275.674 99.3878 276.417 98.8549 276.965C98.322 277.513 97.5992 277.821 96.8455 277.821Z" fill="#E6E6E6"/>
<path d="M136.166 328C141.656 328 146.107 327.492 146.107 326.865C146.107 326.239 141.656 325.731 136.166 325.731C130.676 325.731 126.225 326.239 126.225 326.865C126.225 327.492 130.676 328 136.166 328Z" fill="#F2F2F2"/>
<path d="M171.597 145.246C171.253 145.109 170.957 144.868 170.749 144.553C170.541 144.239 170.431 143.867 170.432 143.486V123.762C170.432 123.095 170.175 122.455 169.718 121.983C169.261 121.51 168.642 121.245 167.996 121.244H164.089C162.475 121.242 160.927 120.578 159.785 119.399C158.644 118.219 158.002 116.619 158 114.95V75.2943C158.002 73.6255 158.644 72.0256 159.785 70.8456C160.927 69.6656 162.475 69.0019 164.089 69H301.911C303.525 69.0019 305.073 69.6656 306.215 70.8456C307.356 72.0256 307.998 73.6255 308 75.2943V114.95C307.998 116.619 307.356 118.219 306.215 119.399C305.073 120.578 303.525 121.242 301.911 121.244H195.532C195.194 121.245 194.86 121.317 194.551 121.458C194.242 121.598 193.965 121.804 193.736 122.061L173.605 144.762C173.435 144.955 173.228 145.11 172.997 145.215C172.766 145.321 172.516 145.376 172.264 145.376C172.036 145.376 171.809 145.332 171.597 145.246Z" fill="white"/>
<path d="M171.597 145.246C171.253 145.109 170.957 144.868 170.749 144.553C170.541 144.239 170.431 143.867 170.432 143.486V123.762C170.432 123.095 170.175 122.455 169.718 121.983C169.261 121.51 168.642 121.245 167.996 121.244H164.089C162.475 121.242 160.927 120.578 159.785 119.399C158.644 118.219 158.002 116.619 158 114.95V75.2943C158.002 73.6255 158.644 72.0256 159.785 70.8456C160.927 69.6656 162.475 69.0019 164.089 69H301.911C303.525 69.0019 305.073 69.6656 306.215 70.8456C307.356 72.0256 307.998 73.6255 308 75.2943V114.95C307.998 116.619 307.356 118.219 306.215 119.399C305.073 120.578 303.525 121.242 301.911 121.244H195.532C195.194 121.245 194.86 121.317 194.551 121.458C194.242 121.598 193.965 121.804 193.736 122.061L173.605 144.762C173.435 144.955 173.228 145.11 172.997 145.215C172.766 145.321 172.516 145.376 172.264 145.376C172.036 145.376 171.809 145.332 171.597 145.246ZM164.089 69.8387C162.69 69.8403 161.348 70.4157 160.359 71.4384C159.369 72.4612 158.813 73.8479 158.811 75.2943V114.95C158.813 116.396 159.369 117.783 160.359 118.806C161.348 119.828 162.69 120.404 164.089 120.405H167.996C168.857 120.406 169.683 120.76 170.292 121.39C170.9 122.019 171.243 122.872 171.244 123.762V143.486C171.244 143.698 171.306 143.904 171.421 144.078C171.537 144.253 171.7 144.387 171.891 144.464C172.082 144.541 172.29 144.556 172.489 144.508C172.689 144.46 172.869 144.351 173.007 144.195L193.138 121.494C193.443 121.151 193.813 120.878 194.225 120.69C194.637 120.503 195.082 120.406 195.532 120.405H301.911C303.31 120.404 304.652 119.828 305.641 118.806C306.631 117.783 307.187 116.396 307.189 114.95V75.2943C307.187 73.8479 306.631 72.4612 305.641 71.4384C304.652 70.4157 303.31 69.8404 301.911 69.8387H164.089Z" fill="#3F3D56"/>
<path d="M175.146 86.0739C178.089 86.0739 180.474 83.608 180.474 80.5661C180.474 77.5243 178.089 75.0584 175.146 75.0584C172.204 75.0584 169.818 77.5243 169.818 80.5661C169.818 83.608 172.204 86.0739 175.146 86.0739Z" fill="#FD6584"/>
<path d="M297.905 111.042H172.516C172.142 111.043 171.772 110.967 171.427 110.82C171.082 110.672 170.768 110.456 170.504 110.183C170.24 109.91 170.03 109.586 169.887 109.23C169.744 108.873 169.671 108.491 169.671 108.105C169.671 107.719 169.744 107.337 169.887 106.98C170.03 106.623 170.24 106.299 170.504 106.026C170.768 105.754 171.082 105.537 171.427 105.39C171.772 105.243 172.142 105.167 172.516 105.167H297.905C298.659 105.167 299.382 105.477 299.915 106.028C300.448 106.579 300.747 107.326 300.747 108.105C300.747 108.884 300.448 109.631 299.915 110.182C299.382 110.733 298.659 111.042 297.905 111.042Z" fill="#E6E6E6"/>
<path d="M257.056 98.5581H172.516C172.142 98.5586 171.772 98.4829 171.427 98.3355C171.082 98.1881 170.768 97.9718 170.504 97.699C170.24 97.4261 170.03 97.1022 169.887 96.7455C169.744 96.3889 169.671 96.0067 169.671 95.6206C169.671 95.2346 169.744 94.8523 169.887 94.4957C170.03 94.1391 170.24 93.8151 170.504 93.5423C170.768 93.2695 171.082 93.0532 171.427 92.9058C171.772 92.7584 172.142 92.6827 172.516 92.6832H257.056C257.809 92.6841 258.531 92.994 259.063 93.5448C259.595 94.0955 259.894 94.8422 259.894 95.6206C259.894 96.3991 259.595 97.1457 259.063 97.6965C258.531 98.2473 257.809 98.5572 257.056 98.5581Z" fill="#E6E6E6"/>
<path d="M171.425 149C176.915 149 181.366 148.489 181.366 147.859C181.366 147.23 176.915 146.719 171.425 146.719C165.935 146.719 161.484 147.23 161.484 147.859C161.484 148.489 165.935 149 171.425 149Z" fill="#F2F2F2"/>
<circle cx="153.5" cy="20.5" r="7" fill="white" stroke="black"/>
</svg>
